<svg width="97" height="36" viewBox="0 0 97 36" fill="none" xmlns="http://www.w3.org/2000/svg">
<path d="M76.6058 28.4372C80.923 29.1901 84.7516 27.0435 86.9382 23.4713H95.3723C93.2658 30.3435 87.1705 35.1492 80.3943 35.8781C72.9454 36.6791 65.881 33.1709 62.3728 26.571C58.6884 19.6267 60.034 11.2327 65.5446 5.68202C70.8629 0.331626 79.1288 -1.18218 86.1773 2.28596C92.8252 5.56187 97.0062 12.9227 95.957 20.5478L68.372 20.6038C69.4132 24.7128 72.4969 27.7163 76.5978 28.4292L76.6058 28.4372ZM87.8593 15.1013C86.4816 10.5919 82.4768 7.80455 78.1356 7.82858C73.7944 7.85261 69.8217 10.8162 68.6122 15.1333L87.8593 15.1013Z" fill="black"/>
<path d="M22.2526 35.1012L21.9322 29.2142C19.6254 32.9066 16.2213 35.6298 11.808 35.9262C4.38315 36.4308 -2.36892 32.1136 -5.26839 25.3215C-7.83146 19.3223 -6.92638 12.5302 -2.92959 7.3961C0.850932 2.5423 6.96224 -0.277071 13.434 0.587963C21.8841 1.71731 28.9726 8.7337 29.0206 17.3119L29.1168 35.0371L22.2526 35.1012ZM20.106 23.1109C22.2125 19.018 21.4836 14.2763 18.416 10.9924C15.092 7.43615 9.82968 6.79538 5.76882 9.46257C3.00551 11.2807 1.38757 14.2683 1.12326 17.2639C0.834911 20.6599 2.05237 23.8638 4.59941 26.0904C7.0103 28.205 10.126 29.054 13.45 28.3171C16.0291 27.7484 18.6322 25.9543 20.106 23.1029V23.1109Z" fill="black"/>
<path d="M55.2043 1.35676H62.9816L48.7806 35.061L40.747 35.069L26.53 1.3888L34.2833 1.31671L44.7518 26.0983L55.2043 1.35676Z" fill="black"/>
</svg>
