<svg width="239" height="73" viewBox="0 0 239 73" fill="none" xmlns="http://www.w3.org/2000/svg">
<mask id="mask0_69_333" style="mask-type:luminance" maskUnits="userSpaceOnUse" x="0" y="0" width="239" height="73">
<path d="M238.921 0H0V72.6757H238.921V0Z" fill="white"/>
</mask>
<g mask="url(#mask0_69_333)">
<path d="M232.562 29.9789L222.569 25.4366C221.305 24.9626 219.841 25.2943 218.935 26.3451L208.034 39.0633V48.1478L214.393 40.8802L220.752 43.6056L226.203 36.338L232.562 39.0633L238.921 31.7958V22.7113L232.562 29.9789ZM226.203 36.338C219.378 36.338 214.393 34.3121 214.393 31.7958H226.203V36.338Z" fill="black"/>
<path d="M22.7111 47.2393H17.2605L15.4436 43.6056H7.26757L4.54223 47.2393H0L11.8098 24.5282L22.7111 47.2393ZM9.08446 39.9718H13.6267L11.8098 33.6127L9.08446 39.9718Z" fill="black"/>
<path d="M19.0774 25.4366H24.5281L30.8872 39.0633L36.3379 25.4366H41.7885L30.8872 48.1478L19.0774 25.4366Z" fill="black"/>
<path d="M59.9574 47.2393H54.5067L52.6899 43.6056H44.5138L41.7885 47.2393H37.2463L49.0561 24.5282L59.9574 47.2393ZM46.3307 39.9718H50.873L49.0561 33.6127L46.3307 39.9718Z" fill="black"/>
<path d="M78.1264 25.4366H82.6686V48.1478L67.225 34.5211V47.2393H62.6828V24.5282L78.1264 38.1549V25.4366Z" fill="black"/>
<path d="M95.3868 29.0704V47.2393H90.8445V29.0704H84.4854V25.4366H101.746V29.0704H95.3868Z" fill="black"/>
<path d="M146.26 47.2393H140.809L138.992 43.6056H130.816L128.091 47.2393H123.549L135.358 24.5282L146.26 47.2393ZM132.633 39.9718H137.175L135.358 33.6127L132.633 39.9718Z" fill="black"/>
<path d="M152.619 47.2393H148.077V25.4366H154.436C159.317 25.4366 162.612 28.3429 162.612 32.7042C162.612 35.5102 161.331 37.0806 158.978 38.1549L165.337 47.2393H159.886L154.436 39.0633H152.619V47.2393ZM152.619 35.4295H154.436C156.611 35.4295 158.07 34.5882 158.07 32.7042C158.07 30.82 156.611 29.0704 154.436 29.0704H152.619V35.4295Z" fill="black"/>
<path d="M175.33 25.4366C181.649 25.4366 187.14 30.1258 187.14 36.338C187.14 42.5502 181.654 47.2393 175.33 47.2393H168.062V25.4366H175.33ZM172.605 29.0704V43.6056H175.33C179.474 43.6056 182.598 40.1294 182.598 36.338C182.598 32.5466 179.414 29.0704 175.33 29.0704H172.605Z" fill="black"/>
<path d="M188.957 25.4366H210.759L207.126 29.0704H193.499V34.5211H203.492L199.858 38.1549H193.499V43.6056H203.492V47.2393H188.957V25.4366Z" fill="black"/>
<path d="M114.464 35.4295L112.647 39.0633H117.189L115.373 42.6971C114.942 42.767 114.947 42.6971 114.464 42.6971C110.714 42.6971 107.197 40.0908 107.197 36.338C107.197 32.5853 109.893 29.9789 113.556 29.9789C115.526 29.9789 117.847 30.3599 119.006 31.7958H124.457C124.22 31.233 123.226 30.8367 122.64 29.9789C120.674 27.1072 117.377 25.4366 113.556 25.4366C107.306 25.4366 102.654 30.3421 102.654 36.338C102.654 42.334 107.302 47.2393 113.556 47.2393C115.28 47.2393 117.578 46.9828 119.006 46.3309L124.457 35.4295H114.464Z" fill="black"/>
</g>
</svg>
