<svg width="149" height="44" viewBox="0 0 149 44" fill="none" xmlns="http://www.w3.org/2000/svg">
<path d="M60.8666 28.6C58.9886 28.6 56.8715 28.0721 55.7332 27.1334C54.595 26.1947 54.2666 25.0115 54.2666 23.4667C54.2666 21.9219 54.595 20.7388 55.7332 19.8C56.8715 18.8643 58.9886 18.3334 60.8666 18.3334C62.7158 18.3334 64.1283 18.998 65.2666 19.8C66.4048 20.6051 66.7046 21.4203 66.7332 22.7334V24.2H57.9332C58.2521 25.3853 59.435 26.4 61.5999 26.4C62.0016 26.4 61.9602 25.6993 62.3332 25.6667C62.7063 25.634 63.5608 25.7113 63.7999 25.6667C64.0422 25.6221 64.2367 25.7559 64.5332 25.6667C64.8298 25.5776 65.1262 25.7172 65.2666 25.6667C65.4036 25.6161 65.7162 25.0522 65.9999 24.9334C65.9043 24.975 66.2837 24.8176 65.9999 24.9334V27.8667C65.0179 28.2143 64.5875 28.4574 63.7999 28.6C63.0124 28.7426 62.1643 28.6 60.8666 28.6ZM57.9332 22.7334H63.0666C63.0251 22.1422 62.8433 21.5935 62.3332 21.2667C61.8231 20.94 61.6797 21.2667 60.8666 21.2667C60.1205 21.2667 59.1703 20.9132 58.6666 21.2667C58.1596 21.6173 58.0289 22.1154 57.9332 22.7334Z" fill="black"/>
<path d="M67.4666 28.6V18.3334H71.1332V22.7334C71.3856 21.2361 71.7749 19.7894 72.5999 19.0667C73.4282 18.3441 74.6846 18.3334 76.2666 18.3334C77.3019 18.3488 77.8649 18.7207 78.4666 19.0667C79.0684 19.4127 79.6161 19.6638 79.9333 20.5334C80.247 21.4 80.6666 22.6783 80.6666 24.2V28.6H76.9999V24.9334C76.9999 23.5556 76.671 22.5512 76.2666 22C75.859 21.452 75.034 21.2667 74.0666 21.2667C73.0863 21.2667 72.4748 21.1396 71.8666 22C71.2551 22.8635 71.1332 24.2889 71.1332 25.6667V28.6H67.4666Z" fill="black"/>
<path d="M81.4 28.6V27.1334L88.7333 21.2667H81.4V19.0667H95.3333V20.5334L88 26.4H95.3333V28.6H81.4Z" fill="black"/>
<path d="M99.7333 32.2667L101.933 28.6L96.0667 19.0667H100.467L104.133 24.9334L107.8 19.0667H111.467L103.4 32.2667H99.7333Z" fill="black"/>
<path d="M112.2 28.6V18.3334H115.867V22.7334C116.119 21.2361 116.51 19.7894 117.333 19.0667C118.16 18.3441 119.418 18.3334 121 18.3334C122.34 18.361 123.281 18.4298 123.933 19.0667C124.582 19.7035 125.262 21.0891 125.4 22.7334C125.651 21.2361 126.043 19.7894 126.867 19.0667C127.689 18.3441 128.951 18.3334 130.533 18.3334C131.567 18.3488 132.133 18.7207 132.733 19.0667C133.334 19.4127 133.887 19.6638 134.2 20.5334C134.516 21.4 134.933 22.6783 134.933 24.2V28.6H131.267V24.9334C131.267 23.5402 130.94 22.542 130.533 22C130.127 21.4581 129.295 21.2667 128.333 21.2667C127.355 21.2667 126.741 21.1396 126.133 22C125.527 22.8635 125.4 24.2889 125.4 25.6667V28.6H121.733V24.9334C121.733 23.5402 121.404 22.542 121 22C120.593 21.4581 119.765 21.2667 118.8 21.2667C117.821 21.2667 117.207 21.1396 116.6 22C115.99 22.8635 115.867 24.2889 115.867 25.6667V28.6H112.2Z" fill="black"/>
<path d="M141.533 28.6C139.656 28.6 138.272 28.0721 137.133 27.1334C135.995 26.1946 135.667 25.0115 135.667 23.4667C135.667 21.9219 135.995 20.7387 137.133 19.8C138.272 18.8643 139.656 18.3334 141.533 18.3334C143.383 18.3334 145.529 18.998 146.667 19.8C147.805 20.6051 148.104 21.4203 148.133 22.7334V24.2H139.333C139.652 25.3853 140.835 26.4 143 26.4C143.402 26.4 143.361 25.6994 143.733 25.6667C144.106 25.634 144.961 25.7113 145.2 25.6667C145.442 25.6222 145.637 25.7558 145.933 25.6667C146.23 25.5775 146.526 25.7172 146.667 25.6667C146.804 25.6162 147.116 25.0522 147.4 24.9334C147.304 24.9749 147.684 24.8175 147.4 24.9334V27.8667C146.417 28.2143 145.987 28.4575 145.2 28.6C144.412 28.7426 142.832 28.6 141.533 28.6ZM139.333 22.7334H144.467C144.425 22.1421 144.244 21.5935 143.733 21.2667C143.223 20.9399 142.347 21.2667 141.533 21.2667C140.788 21.2667 140.571 20.9132 140.067 21.2667C139.563 21.6172 139.432 22.1155 139.333 22.7334Z" fill="black"/>
<path d="M44 22C44 34.1502 34.1502 44 22 44C9.84977 44 0 34.1502 0 22C0 9.84977 9.84977 0 22 0C34.1502 0 44 9.84977 44 22Z" fill="black"/>
<path d="M22.7334 14.6667C22.7334 13.213 24.2491 11.7333 25.6667 11.7333C27.0842 11.7333 27.8667 13.213 27.8667 14.6667V22H22.7334V14.6667Z" fill="white"/>
<path d="M23.4667 30.0667C23.4667 31.653 22.1535 33.0001 20.5334 33.0001C18.9134 33.0001 17.6 31.653 17.6 30.0667V22.0001H23.4667V30.0667Z" fill="white"/>
<path d="M13.9333 17.6C13.9333 16.5817 14.3874 15.4 15.4 15.4C16.4125 15.4 17.6 16.5817 17.6 17.6V22.7334H13.9333V17.6Z" fill="white"/>
<path d="M13.2 24.9334C13.2 26.2403 12.215 27.1334 11 27.1334C9.78499 27.1334 8.80002 26.2403 8.80002 24.9334V22.0001H13.2V24.9334Z" fill="white"/>
<path d="M38.8667 24.2001C38.8667 25.2126 38.4126 25.6667 37.4001 25.6667C36.3875 25.6667 35.2001 25.2125 35.2001 24.2001V22.0001H38.8667V24.2001Z" fill="white"/>
<path d="M5.86668 21.2667C5.86668 20.2542 7.05417 19.0667 8.06668 19.0667C9.0792 19.0667 9.53335 20.2542 9.53335 21.2667V22.7334H5.86668V21.2667Z" fill="white"/>
<path d="M32.2667 28.6001C32.2667 29.5766 31.8125 30.0667 30.8 30.0667C29.7875 30.0667 28.6 29.5766 28.6 28.6001V22.0001H32.2667V28.6001Z" fill="white"/>
<path d="M32.2667 16.1334C32.2667 15.2604 32.9233 14.6667 33.7334 14.6667C34.5434 14.6667 35.2001 15.2604 35.2001 16.1334V22H32.2667V16.1334Z" fill="white"/>
</svg>
