<svg width="109" height="40" viewBox="0 0 109 40" fill="none" xmlns="http://www.w3.org/2000/svg">
<path d="M35.7487 32.4286L35.8136 19.5834L28.6125 19.5583V31.9046C28.6125 32.6549 29.1469 33.2669 29.8092 33.3864L31.2071 33.6399L31.1568 35.3271H21.6649C21.361 34.9855 21.3128 33.7971 21.7131 33.6337C22.4341 33.3696 23.7251 33.2962 23.7293 32.2798L23.7649 19.6044L21.2541 19.5226L21.2751 18.0598L23.7838 16.8107C23.5469 13.2268 25.4793 10.1104 28.8891 9.03313C31.9218 8.07535 38.3454 7.88044 39.0097 11.458C39.1627 12.2816 39.0265 13.8283 37.9409 14.1427C36.8553 14.4571 35.4616 14.258 34.2397 14.2831C34.1454 13.1744 34.2921 11.9861 33.6759 11.1185C33.0074 10.1795 31.7164 10.2215 30.6664 10.5673C28.3589 11.3301 28.5831 15.3981 28.6334 17.3807L40.8373 17.3912L40.7157 21.0232L40.7094 32.0325C40.7094 33.1181 41.7657 33.4555 42.7277 33.5645C43.0965 33.8118 43.084 34.757 42.8723 35.3229H33.5523C33.502 34.6606 33.5062 34.0067 33.6214 33.6001C34.2984 33.4492 35.7361 33.3675 35.7424 32.4286H35.7487Z" fill="black"/>
<path d="M11.5634 32.6067C10.0837 34.7591 7.61069 35.9265 4.83166 35.6373C1.88707 35.3313 -0.497954 33.5163 -1.37819 30.6283C-2.13268 28.1532 -2.07819 25.5313 -1.18118 23.0771C0.696652 17.9361 6.51249 15.5679 11.5759 18.0577L11.6095 12.2816L9.79032 11.1604C9.5514 11.0137 9.33972 9.99512 9.62684 9.91967L14.9732 8.52806C15.4615 8.40021 16.1029 8.43794 16.6289 8.46937L16.4948 11.173L16.5095 31.6699C16.5095 32.6989 17.8591 32.6885 18.6618 32.743C18.9741 33.0427 18.9532 34.0403 18.7666 34.5705L11.5026 35.8028L11.5634 32.6088V32.6067ZM6.34692 32.0136C8.26039 32.6948 10.1235 32.2232 11.6053 30.9825L11.5885 22.4777C11.5843 20.7214 10.2346 19.4744 8.61876 19.2628C6.53135 18.9882 4.6661 20.0047 3.86131 21.9978C2.60592 25.1121 2.85322 30.7708 6.34482 32.0136H6.34692Z" fill="black"/>
<path d="M100.888 22.7733C100.892 21.5095 100.05 20.6649 98.9308 20.5203C97.0698 20.2792 95.2443 20.8346 93.706 21.8469L93.7626 32.4139C93.7668 33.269 95.0368 33.4472 95.7431 33.5897C96.047 33.8831 96.0323 34.6984 95.8982 35.3292L86.5635 35.325L86.618 33.5708C87.4878 33.4975 88.7997 33.2942 88.8018 32.3259L88.827 12.3089L86.8423 11.0158C86.6075 10.8628 86.6285 9.95113 86.9429 9.8694L91.7527 8.64126C92.4213 8.4715 93.1464 8.42539 93.7982 8.44425L93.7207 20.1493C96.3572 17.8251 98.9182 16.4146 102.299 17.3493C104.235 17.8837 105.69 19.5918 105.711 21.6981L105.818 32.3071C105.828 33.2627 107.004 33.5247 107.962 33.552C108.018 34.0591 108.043 34.6355 108.048 35.3292H98.6584C98.606 34.6124 98.6248 34.0382 98.7485 33.5457C99.6707 33.5268 100.844 33.2334 100.848 32.305L100.888 22.7774V22.7733Z" fill="black"/>
<path d="M59.7563 22.8151C59.7563 21.4089 58.7754 20.5349 57.5075 20.472C55.7302 20.384 54.0494 20.8765 52.5467 21.8343L52.5656 32.1205C52.5656 33.1789 53.7015 33.4933 54.6865 33.5645C54.9066 33.946 54.915 34.6732 54.8144 35.3292H45.4336C45.3644 34.6606 45.3707 33.9837 45.5258 33.5897C46.3893 33.4744 47.6426 33.2879 47.6467 32.3049L47.6866 21.281L45.9366 20.0424C45.6138 19.814 45.3246 18.8226 45.7878 18.6864L50.8722 17.1774C51.4003 17.0203 52.0605 17.0098 52.6913 17.0119L52.5782 20.3756C54.3994 18.2211 57.0296 16.8735 59.8883 17.0957C62.5479 17.3032 64.5598 19.1182 64.585 21.872L64.6856 32.3259C64.6961 33.3214 65.9619 33.4807 66.8443 33.5876C66.9386 34.0193 66.9553 34.6585 66.9281 35.3292L57.5662 35.3334C57.3964 34.7004 57.3922 33.8915 57.7254 33.5603C58.6895 33.4891 59.7521 33.1537 59.7521 32.087L59.7584 22.8193L59.7563 22.8151Z" fill="black"/>
<path d="M73.5401 21.9789C72.7563 24.0873 72.8401 26.3214 73.5128 28.3544C74.2275 30.5193 76.0697 31.737 78.3018 31.8858C80.4101 32.0262 82.4221 31.1481 83.7634 29.5762C84.1008 29.4358 85.0376 29.857 85.0167 30.1987C84.0862 33.5519 80.9571 35.6289 77.4844 35.6792C74.5943 35.7232 71.897 34.8241 70.17 32.481C68.6485 30.4145 68.2503 27.8933 68.5563 25.3574C69.0991 20.8723 72.5069 17.496 77.0254 17.125C78.9808 16.9637 80.9068 17.1691 82.5981 18.1268C84.2874 19.0825 85.2011 20.9646 84.5556 22.79C84.2643 23.6137 83.5538 24.0601 82.7344 24.0391L80.2508 23.9783L80.1796 21.805C80.1523 20.9981 79.7185 19.9271 78.9514 19.575C76.8033 18.59 74.3784 19.7176 73.538 21.981L73.5401 21.9789Z" fill="black"/>
</svg>
