<svg width="165" height="44" viewBox="0 0 165 44" fill="none" xmlns="http://www.w3.org/2000/svg">
<path d="M12.5196 0C10.8682 0.00904884 9.23258 0.343856 7.71011 0.986324C6.18764 1.62879 4.80317 2.56987 3.64265 3.74848C2.47988 4.92936 1.56142 6.32966 0.934787 7.86797C0.308154 9.40627 -0.00855511 11.0532 0.000493736 12.7159V16.9168H10.1714V10.8315C10.1714 10.5464 10.2279 10.2636 10.3365 9.99897C10.4451 9.73429 10.6035 9.4945 10.8048 9.29316C11.0061 9.09182 11.2437 8.93121 11.5061 8.82262C11.7685 8.71403 12.049 8.65748 12.3341 8.65748H12.7005C12.9856 8.65748 13.2661 8.71403 13.5285 8.82262C13.7909 8.93121 14.0307 9.09182 14.2298 9.29316C14.4311 9.4945 14.5895 9.73429 14.6981 9.99897C14.8067 10.2636 14.8632 10.5464 14.8632 10.8315V27.1443C16.1979 27.1443 17.5213 26.8796 18.7565 26.3661C19.9916 25.8525 21.1114 25.0992 22.057 24.1491C23.0026 23.199 23.7514 22.0724 24.2627 20.8304C24.774 19.5885 25.0364 18.2606 25.0364 16.9168V12.7159C25.0432 9.34972 23.7243 6.11702 21.3693 3.72586C20.2133 2.54499 18.8357 1.60843 17.3155 0.968226C15.7975 0.328021 14.1665 0 12.5196 0Z" fill="black"/>
<path d="M12.7029 35.4013H12.3364C12.0514 35.4013 11.7709 35.3448 11.5084 35.2362C11.246 35.1276 11.0062 34.967 10.8072 34.7657C10.6058 34.5643 10.4475 34.3245 10.3389 34.0598C10.2303 33.7952 10.1737 33.5124 10.1737 33.2274V16.9146C8.83903 16.9146 7.51564 17.1792 6.28047 17.6928C5.04531 18.2063 3.92551 18.9596 2.97991 19.9097C2.0343 20.8598 1.28551 21.9864 0.774253 23.2284C0.265256 24.4681 0.00057753 25.7983 0.00057753 27.1397V31.2819C-0.0152579 32.9446 0.294665 34.596 0.916773 36.1388C1.53888 37.6816 2.45734 39.0842 3.62238 40.2674C4.78741 41.4505 6.17189 42.3893 7.69888 43.0295C9.22587 43.6697 10.8637 44 12.5196 44C14.1756 44 15.8134 43.6697 17.3404 43.0295C18.8674 42.3893 20.2541 41.4505 21.4169 40.2674C22.582 39.0842 23.5004 37.6816 24.1225 36.1388C24.7446 34.596 25.0546 32.9468 25.0387 31.2819V27.1397H14.8678V33.2251C14.8678 33.5101 14.8113 33.7929 14.7027 34.0576C14.5941 34.3223 14.4335 34.5621 14.2344 34.7634C14.0331 34.9647 13.7955 35.1253 13.5331 35.2339C13.2707 35.3425 12.9902 35.3991 12.7052 35.3991L12.7029 35.4013Z" fill="black"/>
<path d="M42.4283 12.9059H38.8631V31.0896H49.3258V27.6623H42.4283V12.9059Z" fill="black"/>
<path d="M60.7455 19.6337C60.2433 19.0048 59.5985 18.5049 58.8656 18.1769C58.1326 17.8466 57.3341 17.6973 56.5333 17.738C55.6962 17.7312 54.8683 17.9054 54.1036 18.2493C53.339 18.5931 52.6558 19.0953 52.1016 19.7265C50.9117 21.068 50.2534 22.8008 50.2534 24.597C50.2534 26.3932 50.9117 28.1283 52.1016 29.4676C52.6558 30.0987 53.339 30.6009 54.1036 30.9448C54.8683 31.2864 55.6962 31.4606 56.5333 31.456C58.343 31.456 59.7456 30.8249 60.7455 29.5603V31.0941H64.0777V18.1067H60.7455V19.6383V19.6337ZM59.7252 27.2325C59.3882 27.5718 58.9878 27.8365 58.5444 28.013C58.101 28.1894 57.6282 28.2731 57.1531 28.2595C56.6803 28.2754 56.2075 28.1917 55.7686 28.0152C55.3275 27.8388 54.9293 27.5718 54.5968 27.2348C53.9475 26.5109 53.5879 25.572 53.5879 24.597C53.5879 23.622 53.9475 22.6832 54.5968 21.9593C54.9293 21.62 55.3298 21.3553 55.7686 21.1788C56.2098 21.0024 56.6803 20.9187 57.1531 20.9345C57.6282 20.9209 58.101 21.0046 58.5444 21.1811C58.9878 21.3575 59.3882 21.6222 59.7252 21.9615C60.3813 22.6809 60.7455 23.622 60.7455 24.5993C60.7455 25.5766 60.3813 26.5154 59.7252 27.237V27.2325Z" fill="black"/>
<path d="M72.6673 26.8321L69.2988 18.1022H65.6567L70.9525 30.6756C70.7308 31.4267 70.2942 32.094 69.6992 32.5985C69.0726 33.026 68.3216 33.2274 67.5682 33.1708V36.2881C69.0387 36.4239 70.5091 36.0235 71.7103 35.157C72.8188 34.3155 73.7101 32.9672 74.382 31.1145L79.0919 18.1045H75.5267L72.6718 26.8344L72.6673 26.8321Z" fill="black"/>
<path d="M86.2993 17.738C85.3899 17.7063 84.4851 17.8647 83.6412 18.2017C82.7974 18.5388 82.0306 19.0501 81.3926 19.6993C80.1597 21.0318 79.4765 22.7872 79.481 24.6083C79.4856 26.4294 80.1778 28.1803 81.4175 29.506C82.7092 30.8045 84.424 31.4538 86.5595 31.4538C89.0389 31.4538 90.9165 30.5262 92.1924 28.6758L89.5049 27.1171C89.1633 27.5537 88.7222 27.8998 88.2177 28.126C87.7132 28.3523 87.1635 28.4518 86.6115 28.4179C84.6298 28.4179 83.415 27.6035 82.9671 25.9769H92.7082C92.7919 25.5222 92.8349 25.0607 92.8371 24.5993C92.8869 22.7895 92.2218 21.034 90.9889 19.7151C90.3917 19.0704 89.6655 18.5592 88.8556 18.2198C88.0458 17.8805 87.1748 17.7154 86.2993 17.7425V17.738ZM82.9151 23.3754C83.0621 22.613 83.4738 21.9253 84.0779 21.4389C84.7181 20.9616 85.503 20.7196 86.2993 20.7512C87.0278 20.7422 87.7404 20.9707 88.3285 21.4005C88.9552 21.8846 89.3737 22.5904 89.5026 23.3731H82.9151V23.3754Z" fill="black"/>
<path d="M98.495 20.3373V18.1022H95.1627V31.0919H98.495V24.8844C98.495 23.6379 98.8954 22.7466 99.6962 22.2082C100.497 21.672 101.467 21.4503 102.422 21.5838V17.8444C101.585 17.833 100.759 18.048 100.031 18.4687C99.3139 18.8872 98.7687 19.5501 98.4927 20.3396L98.495 20.3373Z" fill="black"/>
<path d="M118.674 15.7201V12.9082H106.818V16.3377H114.156L106.628 28.2279V31.0919H118.819V27.6646H111.145L118.674 15.7224V15.7201Z" fill="black"/>
<path d="M126.687 17.738C125.777 17.7063 124.872 17.8647 124.026 18.2017C123.182 18.5388 122.416 19.0501 121.775 19.6993C120.542 21.0318 119.859 22.7872 119.864 24.6083C119.868 26.4294 120.56 28.1803 121.802 29.506C123.094 30.8045 124.809 31.4538 126.944 31.4538C129.424 31.4538 131.301 30.5262 132.577 28.6758L129.89 27.1171C129.548 27.5537 129.107 27.8998 128.603 28.126C128.098 28.3523 127.548 28.4518 126.996 28.4179C125.015 28.4179 123.8 27.6035 123.354 25.9769H133.095C133.179 25.5222 133.222 25.0607 133.224 24.5993C133.274 22.7895 132.609 21.034 131.376 19.7151C130.779 19.0704 130.053 18.5592 129.243 18.2198C128.433 17.8805 127.562 17.7154 126.687 17.7425V17.738ZM123.3 23.3754C123.447 22.613 123.859 21.9253 124.463 21.4389C125.103 20.9616 125.888 20.7196 126.684 20.7512C127.413 20.7422 128.125 20.9684 128.713 21.4005C129.34 21.8846 129.759 22.5904 129.888 23.3731H123.3V23.3754Z" fill="black"/>
<path d="M138.88 20.3373V18.1022H135.548V31.0919H138.88V24.8844C138.88 23.6379 139.28 22.7466 140.081 22.2082C140.882 21.672 141.853 21.4503 142.807 21.5838V17.8444C141.97 17.833 141.144 18.048 140.418 18.4687C139.701 18.8872 139.154 19.5501 138.88 20.3396V20.3373Z" fill="black"/>
<path d="M150.404 17.738C148.84 17.7561 147.329 18.3171 146.13 19.3261C144.931 20.335 144.117 21.7308 143.825 23.2759C143.533 24.821 143.782 26.4204 144.529 27.8003C145.275 29.1825 146.476 30.2593 147.924 30.852C149.372 31.4447 150.98 31.5149 152.476 31.0511C153.971 30.5874 155.258 29.6169 156.122 28.3071C156.987 26.9972 157.373 25.425 157.215 23.8618C157.057 22.2964 156.367 20.835 155.261 19.7242C154.629 19.075 153.874 18.566 153.037 18.2221C152.202 17.8805 151.304 17.7154 150.404 17.7357V17.738ZM152.91 27.1692C152.582 27.5017 152.193 27.7619 151.761 27.9361C151.329 28.1102 150.867 28.1939 150.404 28.1804C149.942 28.1939 149.481 28.1102 149.051 27.9361C148.621 27.7619 148.232 27.5017 147.908 27.1692C147.268 26.4679 146.913 25.5494 146.913 24.597C146.913 23.6446 147.268 22.7262 147.908 22.0249C148.232 21.6924 148.621 21.4322 149.051 21.258C149.481 21.0838 149.94 21.0001 150.404 21.0137C150.867 21.0024 151.329 21.0861 151.761 21.258C152.193 21.4322 152.582 21.6924 152.91 22.0249C153.557 22.7239 153.919 23.6424 153.919 24.597C153.919 25.5517 153.559 26.4701 152.91 27.1692Z" fill="black"/>
<path d="M164.237 27.09H160.181V31.0896H164.237V27.09Z" fill="black"/>
</svg>
