<svg width="119" height="44" viewBox="0 0 119 44" fill="none" xmlns="http://www.w3.org/2000/svg">
<mask id="mask0_69_268" style="mask-type:luminance" maskUnits="userSpaceOnUse" x="14" y="0" width="14" height="20">
<path d="M27.7246 0H14.0368V19.0889H27.7246V0Z" fill="white"/>
</mask>
<g mask="url(#mask0_69_268)">
<path d="M17.672 0L26.7082 9.05671C26.9649 9.32369 27.16 9.6112 27.3037 9.95006C27.4475 10.2889 27.5091 10.638 27.5091 11.0077C27.5091 11.3774 27.4372 11.7265 27.3037 12.0653C27.16 12.4042 26.9649 12.6917 26.7082 12.9484L21.3378 18.3393L17.6823 14.6735C13.6365 10.6175 13.6365 4.04574 17.672 0Z" fill="black"/>
</g>
<mask id="mask1_69_268" style="mask-type:luminance" maskUnits="userSpaceOnUse" x="0" y="13" width="36" height="31">
<path d="M35.9496 13.6159H0V44H35.9496V13.6159Z" fill="white"/>
</mask>
<g mask="url(#mask1_69_268)">
<path fill-rule="evenodd" clip-rule="evenodd" d="M17.672 43.9898L3.04984 29.3266C-0.995902 25.2808 -0.995902 18.7091 3.04984 14.6633L15.7313 27.3858C15.988 27.6426 16.2858 27.8377 16.6246 27.9814C16.9635 28.1252 17.3126 28.1868 17.672 28.1868C18.0314 28.1868 18.3908 28.1149 18.7194 27.9814C19.0582 27.8377 19.356 27.6426 19.6127 27.3858L32.3044 14.6633C36.3399 18.7091 36.3399 25.2808 32.3044 29.3266L17.672 43.9898Z" fill="black"/>
</g>
<path d="M112.778 33.0025C112.778 33.0025 112.808 13.7596 112.778 12.8354C112.747 11.9113 113.681 10.9974 114.575 10.9974H118.261V31.1645C118.292 32.0784 117.378 33.0025 116.464 33.0025H112.778ZM90.8341 12.8354V33.0025H96.3174V25.6709H105.467C106.38 25.6709 107.294 24.7467 107.294 23.8328V20.167H96.3174V16.5012H107.294C108.208 16.5012 109.122 15.5873 109.122 14.6632V10.9974H92.6619C91.748 10.9974 90.8341 11.9113 90.8341 12.8354ZM81.685 29.3264C81.685 28.4125 82.5989 27.4987 83.5127 27.4987H85.3405C86.2544 27.4987 87.1683 28.4125 87.1683 29.3264V31.1645C87.1683 32.0784 86.2544 33.0025 85.3405 33.0025H83.5127C82.5989 33.0025 81.685 32.0784 81.685 31.1645V29.3264ZM72.5461 33.0025C72.5461 33.0025 72.5769 13.7596 72.5461 12.8354C72.5153 11.9113 73.4497 10.9974 74.3533 10.9974H78.0397V31.1645C78.0705 32.0784 77.1566 33.0025 76.2427 33.0025H72.5564H72.5461ZM50.6026 27.4987V12.8354C50.6026 11.9113 51.4035 10.9974 52.4304 10.9974H56.0859V27.4987H68.8803V31.1645C68.8803 32.0784 67.9664 33.0025 67.0525 33.0025H50.5923V27.5089L50.6026 27.4987Z" fill="black"/>
</svg>
