<svg width="207" height="44" viewBox="0 0 207 44" fill="none" xmlns="http://www.w3.org/2000/svg">
<path d="M20.9402 20.9192H0V0H20.9297L20.9402 20.9192Z" fill="black"/>
<path d="M44.042 20.9192H23.107L23.1018 0H44.0315L44.042 20.9192Z" fill="black"/>
<path d="M20.9402 44H0V23.0807L20.9297 23.086L20.9402 44Z" fill="black"/>
<path d="M44.042 44H23.107L23.1018 23.0807L44.0315 23.086L44.042 44Z" fill="black"/>
<path d="M81.1751 17.936L81.3321 13.7752L80.8768 15.5023L72.9058 35.1707L69.886 35.1602L61.9097 15.8111C61.7109 15.2354 61.7056 14.7591 61.3968 14.2619L61.4963 21.2018L61.4858 35.1759L57.1942 35.1654V8.82929L63.6892 8.80835L70.1424 24.9806L71.5032 28.7698L72.6703 25.5197L79.516 8.81882H85.7547V35.1759H81.1699L81.1804 17.9412L81.1751 17.936Z" fill="black"/>
<path d="M202.331 31.3553C203.409 32.2764 204.869 31.9886 206.062 31.2925L206.089 34.9718C204.393 35.6627 202.53 35.8301 200.74 35.4062C198.076 34.7729 197.118 32.3863 197.092 29.848L197.081 19.9248H190.461V35.1707L185.918 35.1864L185.907 19.9353L182.819 19.8987L182.804 16.2926L185.907 16.235C185.939 14.9423 185.85 13.7804 185.996 12.5767C186.316 9.96503 188.058 7.8663 190.602 7.17021C192.172 6.74105 193.81 6.76722 195.37 7.23302V11.0798C194.559 10.7396 193.826 10.5355 193.004 10.5721C191.623 10.6349 190.681 11.6294 190.518 13.0058C190.393 14.0526 190.476 15.0836 190.461 16.2612H197.076L197.097 12.0167L201.556 10.6454L201.582 16.2507L206.083 16.2874L206.068 19.9039L201.577 19.9248L201.603 29.2199C201.603 29.9527 201.745 30.8424 202.336 31.3501L202.331 31.3553Z" fill="black"/>
<path d="M181.841 29.3037C180.219 34.595 174.828 36.4634 169.772 35.3434C166.548 34.6264 164.088 32.245 163.303 29.0263C162.057 23.9182 163.758 17.9151 169.348 16.3188C171.541 15.6907 173.797 15.6436 176.016 16.1984C181.925 17.6743 183.39 24.2636 181.841 29.3089V29.3037ZM177.298 28.8117C177.905 26.8333 177.916 24.7294 177.34 22.8138C176.701 20.6994 174.906 19.5271 172.76 19.5218C170.615 19.5166 168.809 20.6209 168.087 22.6882C167.427 24.5671 167.406 26.6711 167.993 28.5709C168.683 30.8058 170.615 31.9886 172.886 31.9415C174.927 31.9048 176.665 30.8947 177.303 28.8117H177.298Z" fill="black"/>
<path d="M145.791 29.2723C144.163 34.6578 138.621 36.5262 133.539 35.2963C130.399 34.5374 128.028 32.1927 127.253 29.0525C125.992 23.9286 127.693 17.8994 133.314 16.3083C135.512 15.6855 137.768 15.6436 139.987 16.2037C145.849 17.6848 147.314 24.2374 145.786 29.2723H145.791ZM141.248 28.7751C141.829 26.8438 141.839 24.787 141.306 22.9081C140.699 20.7675 138.893 19.5375 136.721 19.5218C134.538 19.5061 132.691 20.6576 131.979 22.7772C131.372 24.5881 131.351 26.5821 131.864 28.4192C132.518 30.743 134.491 32.0043 136.841 31.9467C138.893 31.8944 140.615 30.8686 141.243 28.7803L141.248 28.7751Z" fill="black"/>
<path d="M158.833 34.1344C156.007 36.1913 151.684 35.9191 148.486 34.6107L148.476 30.2405C150.203 31.5751 154.107 32.8678 155.934 31.5018C156.462 31.1041 156.557 30.4603 156.499 29.8846C156.222 26.9956 148.549 27.8539 148.439 21.8247C148.408 20.1446 149.01 18.653 150.302 17.5644C152.94 15.3453 156.892 15.4709 160 16.6119V20.7361C158.341 19.7207 156.546 19.1712 154.72 19.459C153.861 19.5951 153.15 20.2022 153.024 20.8878C152.856 21.7985 153.207 22.5836 153.966 23.0232C156.63 24.5619 160.958 25.1429 161.037 29.5968C161.068 31.4233 160.315 33.0458 158.833 34.1292V34.1344Z" fill="black"/>
<path d="M112.279 30.3033L112.337 34.3385C110.175 35.6313 107.067 35.8825 104.664 35.4167C101.383 34.7729 98.8549 32.4701 97.9285 29.2356C97.2219 26.7549 97.3947 24.1223 98.3106 21.7095C99.2265 19.2968 101.069 17.5225 103.455 16.5648C106.323 15.518 109.464 15.5494 112.316 16.7637L112.332 21.1338C111.034 20.2022 109.689 19.6003 108.119 19.5323C105.549 19.4224 103.345 20.8669 102.539 23.3058C102.042 24.8655 102.016 26.5089 102.456 28.1052C103.089 30.4185 105.083 31.8735 107.501 31.9206C109.197 31.9886 110.699 31.3501 112.29 30.3086L112.279 30.3033Z" fill="black"/>
<path d="M120.125 25.1533V35.1655L115.639 35.1916V16.2926L120.078 16.2821L120.214 19.4119C121.187 16.6485 123.904 15.2825 126.651 16.2403L126.641 20.7046C124.61 19.6422 122.401 19.6579 121.077 21.7619C120.444 22.7667 120.193 23.8763 120.13 25.1586L120.125 25.1533Z" fill="black"/>
<path d="M94.4741 35.1393L89.9888 35.1707V16.2926L94.4689 16.2874L94.4741 35.1393Z" fill="black"/>
<path d="M93.8933 8.74036C94.8877 9.43644 95.2279 10.6088 94.8772 11.6817C94.5527 12.6761 93.5531 13.3722 92.4121 13.4193C91.1927 13.4664 90.0727 12.7808 89.7115 11.6712C89.3504 10.5617 89.7377 9.33177 90.7897 8.67232C91.7161 8.09137 92.9512 8.07567 93.8985 8.73512L93.8933 8.74036Z" fill="black"/>
</svg>
