<svg width="103" height="44" viewBox="0 0 103 44" fill="none" xmlns="http://www.w3.org/2000/svg">
<path d="M98.2434 10.7858C98.2434 10.5663 98.074 10.5725 98.0364 10.5913C97.9987 10.6102 97.9297 10.6039 97.8733 10.7357L87.2327 35.3483H82.979L72.031 10.2777L71.8992 35.342H68.2352V4.21076L73.292 4.18567L84.9051 31.0193C84.9741 31.1761 85.0619 31.1949 85.1309 31.1949C85.1999 31.1949 85.294 31.1824 85.363 31.0255L96.9761 4.19194H101.964V35.3232H98.2434V10.7858Z" fill="black"/>
<path d="M32.9945 22.0413C31.2064 23.02 29.3933 23.9674 27.9566 25.5547C26.8963 26.7216 26.0618 28.0517 25.9614 29.5951C22.1594 22.8506 23.9977 14.0922 30.4348 9.58123L43.7606 0.239355C44.2186 -0.080615 44.777 -0.0617932 45.2224 0.189164C45.5863 0.38993 45.9251 0.847926 45.9251 1.39376V14.4059C45.9251 16.3257 44.6452 17.6495 42.876 18.1389C39.4065 19.0988 36.075 20.3536 32.9945 22.0413Z" fill="#505050"/>
<path d="M19.9448 29.595C19.8946 28.0642 18.9724 26.7027 17.9497 25.5609C16.513 23.9547 14.6935 23.0262 12.9055 22.0412C9.8187 20.3472 6.49352 19.1113 3.01776 18.1325C1.42418 17.6871 0.0313696 16.495 0.0313696 14.7132L0 1.34349C0 0.81021 0.31997 0.39613 0.67131 0.195365C1.11049 -0.0493185 1.66886 -0.0869621 2.12686 0.233008L15.4025 9.5247C21.8584 14.0419 23.7845 22.838 19.9385 29.5887L19.9448 29.595Z" fill="#505050"/>
<path d="M32.9946 22.0413L38.1204 24.921C39.5069 25.699 40.4731 27.211 40.4731 28.8422V41.7288C40.4794 42.2684 39.8896 42.6135 39.5571 42.7201C39.0677 42.877 38.5595 42.808 38.1643 42.4253L28.0193 32.7195C27.003 31.747 26.5826 30.6867 25.9678 29.5951C26.0682 28.0517 26.9089 26.7216 27.9629 25.5547C29.3996 23.9674 31.2128 23.02 33.0008 22.0413H32.9946Z" fill="black"/>
<path d="M12.9117 22.0413C14.6935 23.0263 16.5129 23.9548 17.9559 25.5609C18.9786 26.7028 19.9008 28.0642 19.951 29.5951C19.5997 30.7369 18.7903 31.8035 17.8744 32.6818L7.76078 42.4253C7.3718 42.8017 6.83851 42.8707 6.3617 42.7201C6.01663 42.6135 5.42688 42.2684 5.42688 41.7288L5.45198 28.7167C5.45198 27.1357 6.46208 25.6676 7.79215 24.921L12.918 22.0413H12.9117Z" fill="black"/>
</svg>
