<svg width="147" height="44" viewBox="0 0 147 44" fill="none" xmlns="http://www.w3.org/2000/svg">
<path d="M16.8397 3.86842C7.81751 6.44145 2.18114 15.1397 3.28325 24.2748C4.38536 33.4098 11.9193 40.7442 21.2438 40.8121L33.2108 40.9004C23.7214 46.5758 11.5592 44.2428 4.7643 35.6574C-0.347051 29.201 -1.50412 20.4333 2.06544 12.7012C5.22278 5.86002 12.0119 0.835456 19.9103 0.0963785C26.6025 -0.529884 33.1949 1.92021 37.8275 6.73795C42.5064 11.602 44.7323 18.3274 43.7589 25.1252L40.5929 25.0977C41.6343 18.6008 39.3418 12.3034 34.6716 8.05266C29.89 3.70064 23.1819 2.0605 16.8412 3.86987L16.8397 3.86842Z" fill="black"/>
<path d="M21.5721 34.522L40.0057 34.5813C39.187 35.7818 38.3756 36.6973 37.4023 37.7156L21.3856 37.6635C13.7909 37.6389 7.60054 31.6786 6.47963 24.4252C5.31389 16.8854 9.67025 9.61183 16.9366 7.12847C22.3286 5.28439 28.2368 6.51956 32.4529 10.2815C36.5677 13.9523 38.5029 19.551 37.3892 25.1296L34.1769 25.0919C36.0933 17.2774 30.5032 9.93147 22.7494 9.46141C14.9754 8.99135 8.55946 15.672 9.53574 23.5588C10.2806 29.5727 15.3196 34.5018 21.5721 34.522Z" fill="black"/>
<path d="M70.0027 35.5446C64.5717 35.575 59.8581 32.5116 57.7667 27.6085C56.3204 24.2198 56.2264 20.4188 57.502 16.9664C59.4228 11.7712 64.2709 8.51259 69.78 8.4504C75.8849 8.38242 81.1858 12.2846 82.7594 18.2045C83.5939 21.343 83.3827 24.6219 82.0984 27.6085C80.0157 32.4523 75.3831 35.5157 70.0042 35.5446H70.0027ZM78.3394 26.8912C79.7843 24.0737 79.9 20.9135 78.8022 18.0497C77.3718 14.3225 73.8832 11.9751 69.9998 11.9491C66.1294 11.923 62.6495 14.1923 61.1468 17.8501C59.9897 20.6676 60.0765 23.7975 61.3609 26.5585C62.9171 29.901 66.1526 31.9779 69.7265 32.0445C73.322 32.1124 76.6269 30.2293 78.3379 26.8912H78.3394Z" fill="black"/>
<path d="M115.762 35.4752C112.535 35.8613 109.554 34.5755 107.641 32.0184C105.008 28.4995 105.001 23.6311 107.548 20.0717C109.583 17.286 112.859 15.9699 116.238 16.5701C118.563 16.9838 120.269 18.3158 121.559 20.4072L121.576 8.84235H125.033V35.1526L121.586 35.1714L121.546 31.5252C120.3 33.728 118.359 35.1642 115.762 35.4752ZM116.077 32.192C119.381 31.8232 121.563 29.2125 121.578 26.0132C121.592 22.6563 119.211 20.0211 115.86 19.7549C112.137 19.4584 109.028 22.2687 109.046 26.0161C109.065 29.7838 112.237 32.6186 116.077 32.1905V32.192Z" fill="black"/>
<path d="M21.6893 28.2392L43.0069 28.2999C42.7639 29.3789 42.3502 30.4014 41.8455 31.4225L21.9612 31.4182C16.9193 31.4182 12.8869 27.4466 12.5919 22.5768C12.2968 17.707 15.8461 13.2739 20.836 12.6462C24.1105 12.234 27.2707 13.5762 29.2797 16.0278C31.3711 18.5805 31.967 21.9852 30.8793 25.1368L27.4645 25.1295C29.3462 21.6685 27.8015 17.5247 24.2696 16.1493C20.6914 14.7564 16.7284 16.8652 15.8693 20.617C15.0405 24.2357 17.6642 28.229 21.6893 28.2406V28.2392Z" fill="black"/>
<path d="M137.736 35.5373C132.108 35.7427 127.804 31.3603 127.886 25.8613C127.964 20.6921 131.901 16.573 137.088 16.4269C142.481 16.275 146.778 20.4766 146.856 25.8715C146.932 31.0624 143.04 35.3421 137.736 35.5359V35.5373ZM143.458 25.6791C143.288 22.2195 140.588 19.7029 137.292 19.7361C133.996 19.7694 131.401 22.3858 131.274 25.763C131.138 29.3745 133.876 32.2744 137.426 32.2382C140.912 32.2021 143.634 29.3268 143.458 25.6791Z" fill="black"/>
<path d="M94.5759 19.7303C91.851 19.752 89.6208 21.5918 89.6005 24.334L89.5224 35.1656L86.031 35.1584L86.0281 16.8174L89.5181 16.8073L89.56 19.9213C90.8704 17.4726 93.2829 16.2418 96.0309 16.4414C98.3263 16.6077 100.447 17.555 101.714 19.5495C102.563 20.8845 103.051 22.4509 103.054 24.0693L103.072 35.1569L99.6265 35.1671L99.5513 24.334C99.5325 21.5918 97.308 19.7086 94.573 19.7318L94.5759 19.7303Z" fill="black"/>
</svg>
