<svg width="166" height="44" viewBox="0 0 166 44" fill="none" xmlns="http://www.w3.org/2000/svg">
<path d="M19.2428 0C19.2428 0.0271605 19.2326 0.0712963 19.2428 0.0950617C19.2666 0.139198 19.3039 0.112037 19.3752 0.118827C24.8651 0.679012 29.8015 3.78549 32.6363 8.54537C35.8311 13.913 36.0144 20.5231 32.9283 26.1284C30.2225 31.0478 24.7938 33.6247 19.2971 35.0914C19.6333 29.8698 15.9666 25.3204 10.745 24.6923L10.7076 1.44969C12.2897 0.777469 13.9499 0.25463 15.7357 0.132407C15.7867 0.129012 15.841 0.125617 15.8647 0.0950617C15.8817 0.0746914 15.8647 0.0271605 15.8647 0H19.2326L19.2428 0Z" fill="#D8D8D8"/>
<path d="M19.2496 35.1084C18.9271 39.8003 15.2332 44 10.5922 44H8.87428C8.62305 43.9763 8.57891 43.9661 8.41255 43.9355C6.78632 43.6232 5.21101 43.1207 3.85299 42.092C1.65978 40.4352 0.21348 37.8787 0.0267513 35.1593C-0.0105944 34.6025 -0.00719937 34.0016 0.0267513 33.4448C0.165949 31.1463 1.28971 29.0142 2.8786 27.3676H2.93971C5.62521 32.3957 14.7443 36.3068 19.2496 35.105V35.1084Z" fill="black"/>
<path d="M0.00976562 16.6086C0.311926 10.8676 3.55761 5.40153 8.54495 2.57684L8.56193 24.7228C6.40606 24.9775 4.41656 25.8873 2.9397 27.3744H2.87859C1.2218 24.7772 0.162543 21.8574 0.0165557 18.7407" fill="#D8D8D8"/>
<path d="M165.061 12.2663V13.9401H157.748V18.7475H164.555L164.562 20.4247L157.775 20.4315V24.2747C157.768 25.0827 158.318 25.5987 159.136 25.6802L165.061 25.6938V27.3981L158.99 27.3879C158.321 27.3879 157.697 27.2623 157.103 27.0077C156.128 26.5867 155.857 25.6259 155.857 24.621V12.2629H165.057L165.061 12.2663Z" fill="black"/>
<path d="M10.7178 1.4531L10.7552 24.6957C15.9768 25.3238 19.6434 29.8698 19.3073 35.0948L19.253 35.1084C14.7477 36.3068 5.62861 32.3957 2.94312 27.3744C4.41997 25.8874 6.41287 24.9775 8.56534 24.7229L8.54836 2.57687C9.25793 2.17625 9.94713 1.77903 10.7178 1.44971V1.4531Z" fill="#505050"/>
<path d="M101.743 27.3574L99.6209 27.371C98.3308 24.784 96.9762 22.3022 95.5197 19.8136C94.4808 18.0346 93.4555 16.3133 92.2265 14.5988L92.2163 27.3676H90.3354V12.2426L92.8274 12.2324C94.1787 14.1303 95.4484 16.0519 96.6163 18.0923L99.8382 24.0201L99.8654 12.2494L101.743 12.2392V27.3574Z" fill="black"/>
<path d="M125.468 21.9865C124.877 25.0522 122.273 27.3507 119.153 27.3574L113.707 27.371V12.2358L119.217 12.2562C122.273 12.2664 124.785 14.6497 125.437 17.5932C125.746 19.0633 125.766 20.4723 125.464 21.9865H125.468ZM123.369 22.1087C123.794 20.5198 123.77 18.8868 123.335 17.3488C122.643 14.901 120.422 13.8892 118.039 13.8994L115.595 13.9096L115.601 25.6905H117.975C120.419 25.6905 122.69 24.6686 123.373 22.1121L123.369 22.1087Z" fill="black"/>
<path d="M71.8459 24.2747C71.8459 25.0861 72.4027 25.6056 73.2209 25.6803L79.1521 25.7006V27.3982L73.0749 27.388C72.0293 27.388 70.4743 27.0349 70.1552 25.8704C70.0228 25.48 69.9617 25.1065 69.9617 24.6651V12.2698H79.1657L79.1725 13.9401H71.8527L71.8425 18.7408L78.6836 18.7577V20.4315L71.8493 20.4349L71.8425 24.2781L71.8459 24.2747Z" fill="black"/>
<path d="M58.9616 18.7102C58.4116 20.2244 56.7922 21.2056 55.2338 21.209L50.8576 21.2192V27.3642H48.9462V12.2324L55.2949 12.2528C57.1724 12.2596 58.7579 13.6685 59.2434 15.4374C59.4369 16.5645 59.3486 17.6509 58.965 18.7102H58.9616ZM56.5749 14.4935C56.2014 14.154 55.7465 13.9673 55.2338 13.9164H50.8338V19.508H55.1014C56.0928 19.4979 56.911 18.8901 57.2539 17.9667C57.6918 16.7886 57.556 15.3932 56.5749 14.4935Z" fill="black"/>
<path d="M146.069 27.3982L139.89 27.3914C139.238 27.3914 138.62 27.2861 138.029 27.0519C137.065 26.675 136.685 25.7142 136.685 24.7263V12.2698H138.589L138.596 24.3188C138.596 25.0997 139.187 25.6633 139.981 25.6667L146.069 25.7006V27.3982Z" fill="black"/>
</svg>
