<svg width="191" height="44" viewBox="0 0 191 44" fill="none" xmlns="http://www.w3.org/2000/svg">
<path d="M190.247 26.4819V29.7293C189.992 29.8865 189.918 30.1841 189.806 30.5269C189.013 32.9744 186.975 34.7314 185.004 35.4743C182.257 36.5123 179.742 36.0647 177.531 34.7314C177.631 36.329 174.616 35.6814 173.386 35.5957L173.376 14.1587C174.683 13.8445 175.962 13.9492 177.307 14.0826L177.454 21.075C180.004 19.4013 182.899 19.2609 185.737 20.5703C188.006 21.6155 189.52 23.8701 190.244 26.4795L190.247 26.4819ZM181.426 23.7725C178.966 24.1034 177.514 26.4581 177.935 28.6937C178.347 30.8793 180.449 32.3316 182.726 31.9554C185.002 31.5792 186.571 29.6008 186.159 27.1295C185.825 25.1248 183.904 23.4416 181.426 23.7749V23.7725Z" fill="black"/>
<path d="M36.2715 39.1336L36.2358 32.0697H24.2269L24.0698 39.9478C22.7984 40.2121 21.6509 39.9978 20.3033 40.0931L20.0581 43.9167L12.3038 44C11.9847 42.7572 12.0252 41.4335 12.2895 40.1597L16.0417 40.0407C16.3274 38.7646 15.8774 37.4456 16.3369 36.1457C17.5535 35.9123 18.763 36.1171 20.1081 36.0147L20.2653 28.1794C21.5485 27.808 22.7604 28.1628 24.1341 27.9509L24.2008 20.7108C24.2055 20.2656 24.5912 19.9823 25.015 19.9846L35.5335 20.0084C35.9811 20.0084 36.281 20.4179 36.2834 20.8179L36.3215 27.9413C37.65 28.3199 40.3142 27.3628 40.3213 28.877L40.3642 35.9766C41.626 36.3123 44.1949 35.4767 44.3187 36.7409C44.4258 37.8289 44.2163 38.8789 44.4258 40.0121L48.1828 40.1716C48.5209 41.3549 48.4637 42.6525 48.2233 43.969L40.438 43.9619L40.2475 40.1526C38.6952 39.7002 36.2763 40.8383 36.2668 39.1288L36.2715 39.1336Z" fill="black"/>
<path d="M119.067 35.61L119.003 26.7057C118.989 24.8748 117.415 23.5463 115.722 23.5749C113.917 23.6059 112.494 25.0248 112.486 26.9462L112.444 35.6314C111.077 35.8076 109.863 35.8385 108.499 35.5981L108.532 20.0703C110.029 20.0275 112.084 19.6466 112.701 20.5417C115.417 18.8942 118.722 19.618 121.015 21.8607C123.236 19.8085 126.074 19.0894 128.959 20.1037C131.328 20.937 133.519 23.213 133.704 26.1129C133.907 29.2865 133.728 32.3578 133.762 35.579C132.39 35.8433 131.093 35.8457 129.778 35.5671L129.674 26.4748C129.655 24.7177 127.967 23.5797 126.4 23.5773C124.812 23.5749 123.129 24.7082 123.107 26.4795L123.005 35.5695C121.767 35.8671 120.484 35.8028 119.067 35.61Z" fill="black"/>
<path d="M165.334 20.1941C166.655 19.8656 167.926 19.9322 169.324 20.1489L169.305 29.3436C169.298 33.3148 165.662 36.1647 161.698 36.0409C158.17 35.9314 154.97 33.3934 154.648 29.7936C154.36 26.5438 154.651 23.4273 154.558 20.1465C155.984 19.918 157.224 19.8965 158.529 20.1679L158.674 29.5151C158.701 31.2126 160.558 32.2268 162.058 32.1721C163.557 32.1173 165.238 31.0293 165.255 29.3198L165.334 20.1941Z" fill="black"/>
<path d="M100.461 20.2061C101.751 19.8466 103.027 19.9537 104.442 20.1346C104.396 23.3392 104.606 26.37 104.392 29.5746C104.13 33.4625 100.644 36.1814 96.7944 36.0385C93.2423 35.9076 90.0734 33.3744 89.7615 29.7794C89.4805 26.5391 89.7662 23.4202 89.6734 20.1465C91.0828 19.918 92.3161 19.9108 93.647 20.1537L93.7946 29.5151C93.8208 31.1388 95.5302 32.1149 96.9278 32.1697C98.4229 32.2292 100.306 31.2483 100.33 29.5603L100.463 20.2084L100.461 20.2061Z" fill="black"/>
<path d="M148.425 34.9004C145.549 36.6408 140.999 36.1409 137.94 35.5195C137.711 34.3814 137.747 33.2053 138.187 32.1625C139.897 32.2387 145.87 33.5743 146.33 31.5578C146.48 30.8983 145.968 30.3769 145.301 30.1936L140.706 28.9341C139.347 28.5627 138.24 27.6175 137.826 26.6676C137.173 25.1724 137.285 23.7296 138.011 22.4654C140.014 18.9775 145.323 19.6418 148.818 19.9417C149.192 20.9988 149.156 22.094 148.851 23.1725L143.87 23.1201C142.828 23.1082 141.437 23.5368 141.552 24.6629C141.594 25.0891 141.985 25.4652 142.471 25.5962L147.108 26.8509C148.904 27.3366 150.23 28.6341 150.461 30.2221C150.737 32.1173 150.125 33.8719 148.427 34.8981L148.425 34.9004Z" fill="black"/>
<path d="M83.9999 34.5719C81.2357 36.7123 76.4979 36.1313 73.1052 35.5695C72.7791 34.46 72.9195 33.2577 73.2719 32.1649C74.967 32.2173 81.0072 33.5791 81.4548 31.5673C81.6119 30.8602 81.1119 30.3769 80.4191 30.1888L75.7908 28.9222C74.3361 28.5246 73.1624 27.4342 72.7957 26.3033C72.26 24.6439 72.541 23.0416 73.5862 21.8059C75.9217 19.0442 80.7691 19.6418 84.0023 19.9846C84.2308 21.0917 84.3046 22.1416 83.9499 23.1844L79.1906 23.1154C78.4264 23.1035 77.6907 23.213 77.086 23.6677C76.7027 23.9558 76.6312 24.4844 76.7741 24.8986C76.8741 25.1867 77.2336 25.5176 77.6955 25.6414L82.2071 26.8438C83.8475 27.2794 85.1736 28.4699 85.4927 29.8436C85.9236 31.6959 85.4403 33.4577 83.9975 34.5743L83.9999 34.5719Z" fill="black"/>
<path d="M16.1822 24.0939C15.8298 25.5034 16.8107 28.1009 15.2322 28.0413C12.8514 27.9532 10.5539 28.1699 8.15404 27.9199C7.98024 25.4439 8.1088 23.1678 8.07309 20.8108C8.06357 20.2251 8.53973 19.9751 9.05637 19.9799L19.9724 20.0561C20.3034 21.3441 20.251 22.6583 20.0224 23.9106L16.1822 24.0963V24.0939Z" fill="black"/>
<path d="M44.5021 28.0032C44.133 26.6081 44.4664 25.4224 44.2735 24.0868C42.9474 23.8892 41.7284 24.2177 40.4499 23.8725C40.2404 22.7368 40.2499 21.5607 40.3999 20.4203C40.4452 20.0656 41.0642 19.9775 41.3951 19.9798L52.3136 20.0656L52.3183 27.9294L44.4997 28.0032H44.5021Z" fill="black"/>
<path d="M4.11137 16.0158C3.909 17.3847 4.28278 18.5918 3.88519 19.8798C2.65906 20.0846 1.43532 20.0656 0.118724 19.8918C-0.0645994 17.2943 -0.00269796 14.792 0.0853925 12.0827L7.87545 12.0255C8.20876 13.3064 8.1421 14.6135 7.93497 15.8896C6.66599 16.1396 5.58033 15.9396 4.11137 16.0182V16.0158Z" fill="black"/>
<path d="M60.4345 19.7847C59.1608 20.1727 57.837 20.0513 56.5847 19.8632C56.2371 18.5681 56.5657 17.3943 56.38 16.0515L52.6207 15.9206C52.2278 14.7373 52.2873 13.3398 52.5849 12.066C55.042 11.8827 57.2942 12.0184 59.7036 11.9827C60.1203 11.9756 60.4702 12.347 60.4679 12.747L60.4321 19.7823L60.4345 19.7847Z" fill="black"/>
<path d="M52.316 39.9192C51.0136 40.1788 49.8542 40.1645 48.5162 39.9335C48.3995 38.8265 48.0948 37.2718 48.5995 36.2694C49.6018 35.76 51.166 36.0742 52.2326 36.1742C52.5017 37.4622 52.416 38.4812 52.316 39.9192Z" fill="black"/>
<path d="M12.0038 39.924C10.6372 40.1907 9.59678 40.1169 8.29685 39.9836C7.92782 38.7384 7.95878 37.4384 8.27066 36.129C9.42774 36.1123 10.8777 35.7528 11.8681 36.2576C12.4204 37.1956 12.0514 38.7384 12.0014 39.924H12.0038Z" fill="black"/>
<path d="M44.1784 11.9684H16.3156C16.0109 10.6518 16.0513 9.38044 16.287 8.11861L20.1392 7.93052C20.2868 6.65678 19.9987 5.38066 20.3321 4.10692L24.158 3.89741C24.2914 2.60224 24.0104 1.39516 24.3676 0L36.1907 0.040474L36.3145 3.86646C37.5406 4.30453 40.2453 3.27839 40.3286 4.78546C40.3881 5.85921 40.2191 6.89248 40.4191 7.95909C41.7285 8.06385 42.8785 7.85434 44.1641 8.0948C44.426 9.31616 44.4379 10.4923 44.1784 11.9684Z" fill="black"/>
</svg>
