<svg width="194" height="44" viewBox="0 0 194 44" fill="none" xmlns="http://www.w3.org/2000/svg">
<mask id="mask0_69_130" style="mask-type:luminance" maskUnits="userSpaceOnUse" x="0" y="0" width="194" height="44">
<path d="M193.734 0H0V44H193.734V0Z" fill="white"/>
</mask>
<g mask="url(#mask0_69_130)">
<path fill-rule="evenodd" clip-rule="evenodd" d="M0.752847 1.5958C5.59044 7.56752 10.8997 15.0849 11.7629 16.2993C11.8131 16.3595 11.8432 16.4097 11.8632 16.4398C12.3249 17.0921 12.6963 17.5639 12.9873 17.9252C13.6297 18.7281 13.8103 18.969 13.4289 19.1898C13.1278 19.3704 12.8067 19.4307 12.4955 19.4307C12.1342 19.4307 11.7328 19.25 11.4417 18.969C11.241 18.7682 9.8158 16.6706 7.8888 13.6195C6.41343 11.2911 5.17894 9.35401 5.14883 9.3239C5.0953 9.27037 5.95844 10.8695 7.73825 14.1213C9.41434 17.1825 10.5685 19.4407 10.5685 19.5812C10.5685 19.8723 10.4882 20.0328 10.137 20.4343C9.54482 21.1068 9.27383 21.8695 9.08314 23.4352C8.87237 25.1916 8.26015 26.4361 6.59409 28.5538C5.61051 29.7984 5.44993 30.0292 5.19902 30.531C4.88788 31.1633 4.79756 31.5146 4.76745 32.3175C4.7273 33.1606 4.79756 33.7026 5.0585 34.5155C5.27931 35.2181 5.51015 35.6898 6.1023 36.6131C6.61416 37.4161 6.90522 38.0182 6.90522 38.2491C6.90522 38.4398 6.94537 38.4398 7.72821 38.2491C9.62511 37.8175 11.1607 37.0447 12.0238 36.1113C12.5658 35.5292 12.6862 35.208 12.6862 34.4151C12.6862 33.8932 12.6662 33.7828 12.5357 33.4818C12.3149 33 11.9034 32.5885 11.0001 31.9662C9.8158 31.1432 9.31398 30.4808 9.17347 29.5675C9.06307 28.8248 9.19354 28.2929 9.84591 26.8978C10.5284 25.4526 10.689 24.8403 10.8094 23.385C10.8797 22.4416 10.98 22.0703 11.251 21.7792C11.532 21.4681 11.783 21.3577 12.4554 21.2673C13.5695 21.1068 14.282 20.8157 14.8742 20.2737C15.3861 19.802 15.5968 19.3403 15.6269 18.6578L15.647 18.1359L15.366 17.7947C14.3222 16.5803 0.0603288 0.642334 0.000109854 0.642334C-0.0199631 0.642334 0.321278 1.0739 0.752847 1.60584V1.5958ZM7.4773 33.271C7.70814 32.8495 7.57767 32.3175 7.19628 32.0566C6.83496 31.8157 6.26288 31.9261 6.26288 32.2473C6.26288 32.3476 6.31307 32.4179 6.4335 32.4781C6.63423 32.5785 6.65431 32.6989 6.49372 32.9498C6.33314 33.2007 6.34318 33.4115 6.53387 33.562C6.83496 33.8029 7.2565 33.6724 7.48734 33.271H7.4773ZM14.4527 10.4681C14.001 10.3978 13.981 10.3878 14.1917 10.3577C14.6032 10.2874 15.5868 10.3777 16.2492 10.5383C17.8149 10.9197 19.2401 11.8932 20.7757 13.6195L21.1771 14.0812L21.7592 13.9909C24.1981 13.5894 26.6771 13.9106 28.7547 14.8841C29.3268 15.1551 30.22 15.687 30.3404 15.8175C30.3806 15.8677 30.4408 16.1487 30.491 16.4498C30.6415 17.4936 30.5713 18.2865 30.2601 18.8887C30.0895 19.2099 30.0795 19.3102 30.1899 19.5912C30.2802 19.812 30.5311 19.9827 30.7921 19.9827C31.3039 19.9827 31.856 19.1296 32.1169 17.9553L32.2173 17.4836L32.418 17.7144C33.522 18.9991 34.3952 20.7454 34.5558 21.99L34.5959 22.3111L34.4052 22.0201C34.0841 21.5082 33.7629 21.167 33.3514 20.8859C32.6087 20.3841 31.8158 20.2135 29.7383 20.1031C27.8514 20.0027 26.7875 19.8321 25.7337 19.4909C23.9372 18.8987 23.0238 18.0958 20.8861 15.2454C19.9426 13.9708 19.3505 13.2783 18.7684 12.7062C17.4435 11.4215 16.1388 10.7491 14.4727 10.4881L14.4527 10.4681ZM30.762 13.2984C30.8122 12.4453 30.9226 11.8832 31.1534 11.3713C31.2437 11.1706 31.3341 11.01 31.3441 11.01C31.3642 11.01 31.314 11.1606 31.2638 11.3412C31.0932 11.833 31.0731 12.5155 31.1835 13.3084C31.324 14.312 31.4043 14.4626 32.4481 15.5365C32.9299 16.0484 33.5019 16.6907 33.7127 16.9617L34.0941 17.4635L33.7127 17.1122C33.2611 16.6706 32.1972 15.8175 31.9764 15.6971C31.8158 15.6168 31.7957 15.6168 31.6954 15.7172C31.605 15.8075 31.595 15.938 31.5749 16.5803C31.5549 17.5739 31.4244 18.2162 31.1032 18.8485C30.9326 19.1898 30.9025 19.1195 31.053 18.7381C31.1735 18.4471 31.1835 18.3166 31.1835 17.3531C31.1835 15.4261 30.9627 14.9544 29.6379 14.1615C29.3067 13.9608 28.7446 13.6697 28.4134 13.5192C28.0722 13.3586 27.8012 13.2281 27.8112 13.2181C27.8514 13.1779 29.1361 13.5593 29.658 13.7701C30.4308 14.0712 30.5612 14.1113 30.6516 14.0712C30.7118 14.0411 30.7419 13.8604 30.782 13.3084L30.762 13.2984ZM13.9609 11.813C13.8404 13.2984 14.4125 15.2956 15.3459 16.6104C16.0685 17.6241 17.1826 18.4069 18.0156 18.4772C18.5576 18.5274 18.7182 18.3568 18.4673 17.9954C18.126 17.4936 17.7145 16.7208 17.6041 16.3896C17.5339 16.1788 17.3934 15.5766 17.2729 15.0347C16.8815 13.198 16.5001 12.4754 15.6269 11.9334C15.3058 11.7327 14.6132 11.4717 14.2218 11.4015L14.0111 11.3613L13.9709 11.823L13.9609 11.813ZM29.6278 26.2956C25.2921 24.5091 23.7565 22.9735 23.7565 20.364C23.7565 19.9827 23.7766 19.6715 23.7866 19.6715C23.7966 19.6715 23.9673 19.802 24.158 19.9526C25.0412 20.6752 26.0247 20.9863 28.7547 21.3878C30.3605 21.6286 31.2738 21.8193 32.0968 22.1004C34.7465 22.9936 36.3924 24.8102 36.7839 27.2792C36.8943 28.0018 36.8341 29.3467 36.6434 30.0593C36.4928 30.6213 36.0512 31.625 35.9308 31.6651C35.9007 31.6752 35.8705 31.5547 35.8605 31.3741C35.8204 30.4507 35.3587 29.5474 34.5758 28.865C33.6926 28.0922 32.5184 27.4799 29.6178 26.2956H29.6278ZM26.376 26.1049C26.4362 26.2956 26.5366 26.7071 26.5868 27.0383C26.9381 29.146 25.8541 30.8522 23.7364 31.5046C23.5156 31.5748 22.6324 31.7454 21.7793 31.896C20.053 32.187 19.2802 32.3978 18.4974 32.7792C17.9454 33.0502 17.283 33.4516 17.3231 33.4918C17.3331 33.5018 17.4636 33.4717 17.6041 33.4215C18.5777 33.0703 19.6716 32.8896 21.3176 32.8093C21.97 32.7692 22.7227 32.719 22.9737 32.6788C24.439 32.4881 25.4627 32.0365 26.2556 31.2135C26.6972 30.7518 26.9581 30.3303 27.1789 29.7281C27.3094 29.3467 27.3295 29.2062 27.3295 28.5338C27.3295 27.8613 27.3094 27.7208 27.1689 27.2993C26.9782 26.7473 26.7574 26.3257 26.4664 26.0046L26.2656 25.7737L26.376 26.1049ZM28.574 30.6414C28.0019 29.3768 27.8614 28.1624 28.1826 27.0283C28.2127 26.8978 28.2729 26.8075 28.303 26.8075C28.3331 26.8075 28.4737 26.8878 28.6041 26.9781C28.8751 27.1588 29.407 27.4699 30.8222 28.2628C32.5987 29.2463 33.6123 30.0091 34.2948 30.8723C34.897 31.635 35.2684 32.5082 35.449 33.562C35.5494 34.1542 35.4892 35.5995 35.3386 36.2117C34.8669 38.1186 33.7528 39.614 32.1771 40.4872C31.9463 40.6177 31.7355 40.7181 31.7154 40.7181C31.6853 40.7181 31.7757 40.4973 31.8961 40.2363C32.428 39.1022 32.4883 38.0082 32.0868 36.7838C31.8459 36.031 31.3441 35.1177 30.3204 33.5721C29.1461 31.7755 28.855 31.2938 28.564 30.6615L28.574 30.6414ZM17.7045 34.7765C15.8778 35.0776 13.8705 36.0611 12.2547 37.4462L11.783 37.8577L12.2045 37.9279C14.4025 38.2792 15.0047 38.5903 16.5302 40.1861C17.4134 41.1095 17.7045 41.3203 18.4372 41.5009C19.501 41.7819 20.5549 41.2701 20.9162 40.2965C21.0768 39.865 21.0567 39.1423 20.876 38.781C20.4344 37.9179 19.1497 37.6369 18.5275 38.2692C18.0056 38.7911 18.1561 39.5839 18.8085 39.7144C18.9591 39.7445 18.949 39.7445 18.7684 39.6542C18.4873 39.5237 18.3669 39.3431 18.3669 39.062C18.3669 38.3896 19.1096 38.0182 19.8222 38.3394C20.3341 38.5703 20.5348 38.8814 20.5348 39.4234C20.5348 40.2564 19.8423 40.8786 19.0293 40.7783C18.5977 40.7281 18.0658 40.4471 17.7848 40.1159C17.0722 39.2929 17.3532 37.9982 18.3468 37.5064C19.1096 37.125 20.1133 37.2153 20.8961 37.7372C21.7994 38.3394 22.1808 38.8814 22.9536 40.6779C23.2145 41.26 23.5357 41.9224 23.6762 42.1432C24.4089 43.2573 25.2921 43.8093 26.3459 43.8093C26.928 43.8093 27.3696 43.7089 27.9216 43.4179C28.3331 43.2071 28.9153 42.8157 28.8751 42.7655C28.855 42.7454 28.6945 42.8057 28.4937 42.8859C27.3395 43.3476 26.1653 43.3075 25.4828 42.8057C25.0512 42.4845 24.6999 41.8522 24.5293 41.0493C24.4992 40.9088 24.3988 40.3066 24.3085 39.6943C24.0676 38.1588 23.8468 37.4662 23.3149 36.6633C22.7729 35.8504 21.7291 35.1779 20.5649 34.8668C19.8322 34.6761 18.5174 34.6259 17.7346 34.7564L17.7045 34.7765ZM15.1452 22.8832C15.3058 22.2911 15.8176 21.719 16.3395 21.5584C16.6707 21.458 17.3633 21.5182 17.6844 21.6889C18.3167 22.0201 18.7684 22.7527 18.668 23.2847C18.5476 23.937 17.5138 24.4589 16.3195 24.469C15.7173 24.469 15.4864 24.3887 15.2556 24.0776C15.105 23.8768 15.0549 23.2445 15.1552 22.8832H15.1452ZM17.5238 21.9197C17.835 22.1104 17.9153 22.4015 17.7346 22.6624C17.6041 22.8431 17.2127 23.0237 16.9317 23.0237C16.5001 23.0237 16.0284 22.7126 16.0284 22.4215C16.0284 21.8495 16.9317 21.5383 17.5238 21.9097V21.9197ZM111.104 23.5557C110.131 20.2838 111.736 17.5839 115.159 16.7108C116.142 16.4599 120.599 16.5703 121.361 16.8713C121.642 16.9717 121.763 17.3932 121.763 18.2363C121.763 18.9088 121.833 19.7217 121.923 20.0429C122.054 20.5347 121.974 20.625 121.462 20.625C121 20.615 120.719 20.344 120.318 19.5109C119.685 18.1861 118.923 17.7646 117.156 17.7546C114.888 17.7546 113.242 19.2801 113.503 21.1268C113.684 22.3312 114.878 23.5255 117.558 25.1515C120.107 26.7071 121.602 27.9818 122.194 29.1259C123.78 32.177 122.425 35.4489 118.892 37.0949C117.076 37.938 114.035 38.0283 111.897 37.2956L110.532 36.8239V34.6159C110.532 32.6186 110.582 32.4078 111.024 32.4078C111.405 32.4078 111.566 32.6588 111.696 33.4516C112.027 35.4088 113.503 36.6031 115.611 36.6031C117.718 36.6031 119.113 35.469 119.675 33.4115C119.906 32.5283 119.866 32.2071 119.404 31.2436C118.842 30.0794 117.879 29.3066 114.607 27.4097C112.79 26.3558 111.506 24.9507 111.084 23.5456L111.104 23.5557ZM46.9709 18.0155C46.5193 18.0155 46.3487 17.865 46.3487 17.4936C46.3487 16.9918 46.5193 16.9717 50.022 16.9717C53.2638 16.9717 53.6853 17.0219 53.6151 17.3932C53.5649 17.6241 53.1233 17.9553 52.6215 18.1159L51.7081 18.4069L51.6278 25.0912C51.5777 29.5474 51.6479 32.1168 51.8487 32.8193C52.4408 34.8969 54.2474 36.1013 56.7966 36.1013C58.5731 36.1013 59.6069 35.6797 60.9116 34.4352C62.3167 33.1004 62.5375 31.8358 62.5275 25.2418C62.5275 18.7381 62.4171 18.1962 61.022 18.0657C60.3897 18.0055 60.1789 17.8549 60.1789 17.4735C60.1789 17.0018 60.3897 16.9617 63.3103 16.9617C66.231 16.9617 66.4417 16.9918 66.4417 17.4836C66.4417 17.8047 66.2711 18.0055 65.9901 18.0155C64.7857 18.0255 64.7656 18.146 64.595 25.2719C64.4244 32.6788 64.2738 33.562 62.7784 35.3686C62.3468 35.8905 61.3231 36.6533 60.5001 37.0547C59.1552 37.7171 58.7337 37.7874 56.3952 37.7874C54.2373 37.7874 53.5549 37.677 52.481 37.1852C50.9052 36.4626 49.8815 35.5292 49.1288 34.1241C48.5968 33.1405 48.5567 32.6086 48.4362 25.9744C48.2957 18.3768 48.2355 18.0055 46.9709 18.0055V18.0155ZM71.3897 18.0155C70.7976 18.0155 70.6169 17.9051 70.6169 17.4936C70.6169 17.0018 70.7875 16.9717 73.2966 16.9918L75.9664 17.0119L77.251 18.4973C77.9536 19.3102 80.2419 21.8695 82.3496 24.1779C84.4472 26.4863 86.8559 29.1661 87.699 30.1396C88.5421 31.1131 89.345 31.9161 89.4755 31.9161C89.606 31.9161 89.6662 29.1661 89.626 25.6031L89.5457 19.2901L88.8131 18.6578C88.4116 18.3166 87.7893 18.0255 87.4481 18.0255C86.9764 18.0255 86.8058 17.885 86.8058 17.4936C86.8058 16.9818 86.9362 16.9617 90.3888 17.0319C93.3295 17.0922 93.9718 17.1724 93.9718 17.4836C93.9718 17.7044 93.6105 17.9352 93.0987 18.0456C92.6269 18.146 92.095 18.3668 91.9244 18.5274C91.7136 18.7381 91.6032 21.5182 91.543 28.1122L91.4727 37.406H90.71C90.0576 37.406 89.2848 36.6734 85.1397 32.0967C82.4901 29.1761 79.4089 25.7135 78.2747 24.3887C77.1406 23.0639 76.1269 21.9799 76.0266 21.9599C75.7255 21.9297 75.7957 33.7226 76.1069 34.8467C76.3477 35.7199 76.5184 35.8704 77.5421 36.1414C78.3651 36.3622 78.7063 36.5931 78.7063 36.9243C78.7063 37.3558 78.3952 37.3859 75.053 37.3859C71.7109 37.3859 71.3997 37.3558 71.3997 36.8942C71.3997 36.563 71.6406 36.3522 72.1726 36.2518C73.7684 35.9307 73.8687 35.4288 73.9591 27.6606C74.0092 23.3148 73.939 20.2737 73.7684 19.6414C73.4673 18.5274 72.7246 18.0055 71.3897 18.0055V18.0155ZM98.7492 18.0155C98.1872 18.0155 98.0165 17.885 98.0165 17.4936C98.0165 16.9918 98.1872 16.9717 101.931 16.9717C105.674 16.9717 105.845 16.9918 105.845 17.4936C105.845 17.875 105.674 18.0155 105.193 18.0155C104.831 18.0155 104.299 18.2564 104.008 18.5474C103.486 19.0693 103.476 19.3303 103.557 27.3495C103.627 35.1779 103.657 35.6296 104.139 35.9808C104.42 36.1816 104.922 36.3522 105.243 36.3522C105.674 36.3522 105.845 36.5027 105.845 36.8741C105.845 37.3759 105.674 37.396 101.931 37.396C98.1872 37.396 98.0165 37.3659 98.0165 36.9142C98.0165 36.5429 98.2775 36.3823 99.0503 36.2518C100.596 36.0109 100.666 35.489 100.576 26.4361C100.496 19.1797 100.465 18.7281 99.9837 18.3768C99.7027 18.1761 99.1507 18.0055 98.7492 18.0055V18.0155ZM126.048 18.0155C125.697 18.0155 125.416 17.8148 125.336 17.4936C125.195 16.9818 125.326 16.9717 129.09 16.9717C132.853 16.9717 132.984 16.9918 132.984 17.4936C132.984 17.8951 132.803 18.0155 132.231 18.0155C130.585 18.0155 130.625 18.3166 133.114 25.1615C134.379 28.6542 135.613 31.9662 135.844 32.5283L136.276 33.552L138.263 28.2126C140.611 21.9197 140.913 20.7555 140.511 19.6113C140.23 18.8084 139.156 18.0255 138.333 18.0255C138.102 18.0255 137.932 17.8047 137.932 17.5036C137.932 17.0018 138.102 16.9818 141.976 16.9818C145.85 16.9818 146.021 17.0018 146.021 17.5036C146.021 17.875 145.85 18.0255 145.419 18.0255C144.325 18.0255 143.843 18.6177 143.994 19.7518C144.154 20.9261 148.641 33.552 148.831 33.3613C149.142 33.0502 154.111 19.4608 154.111 18.9288C154.111 18.2865 153.669 18.0155 152.655 18.0155C152.204 18.0155 152.023 17.875 152.023 17.4936C152.023 17.0018 152.204 16.9717 155.154 16.9717C157.814 16.9717 158.286 17.0319 158.286 17.3832C158.286 17.604 157.965 17.9051 157.563 18.0456C156.67 18.3567 156.449 18.7181 155.325 21.6086C154.833 22.8832 153.288 26.8577 151.902 30.4507C151.009 32.7491 150.126 35.0374 149.233 37.3257C149.163 37.5164 148.731 37.677 148.279 37.677H147.456L145.579 32.7591C144.676 30.3905 143.773 28.0219 142.87 25.6432C142.087 23.5657 142.027 23.4754 141.725 24.0675C141.555 24.4088 140.31 27.6204 138.975 31.1934L136.537 37.687L134.72 37.5265L131.247 28.3832C129.31 23.2746 127.524 18.9589 127.203 18.6277C126.882 18.2965 126.37 18.0155 126.048 18.0155ZM178.218 18.1259C178.168 18.0255 178.168 17.6743 178.168 17.6743C178.168 17.6743 178.158 17.5438 178.218 17.4735C178.268 17.4033 178.288 17.4033 178.479 17.3832C179.182 17.313 180.597 17.2026 181.771 17.1524C181.882 17.1524 182.002 17.1423 182.132 17.1323C183.427 17.0721 185.756 16.9918 187.351 17.0721C190.413 17.2327 192.59 18.7181 193.333 21.187C194.076 23.656 193.684 25.9745 192.671 27.4398C191.657 28.9151 189.951 30.1797 187.121 30.0994C184.782 30.0292 184.16 29.5876 183.658 29.2463C183.558 29.1661 183.457 29.0958 183.347 29.0356V32.177C183.377 34.3248 183.387 35.3586 183.558 35.74C183.778 36.2518 184.28 36.563 185.254 36.8139C185.254 36.8139 185.695 36.9142 185.816 37.0246C185.926 37.135 185.926 37.3859 185.926 37.3859C185.926 37.3859 185.956 37.6168 185.856 37.7372C185.766 37.8476 185.585 37.8275 185.585 37.8275L181.259 37.7874H178.65C178.65 37.7874 178.379 37.8376 178.268 37.7272C178.168 37.6168 178.178 37.3859 178.178 37.3859C178.178 37.3859 178.208 37.135 178.319 37.0246C178.439 36.9142 178.891 36.7938 178.891 36.7938C179.894 36.5027 180.336 36.2016 180.557 35.6396C180.747 35.1779 180.747 34.3349 180.747 27.4097C180.747 20.8358 180.727 19.6113 180.587 19.26C180.366 18.7381 179.804 18.5976 179.021 18.4069C178.861 18.3668 178.7 18.3266 178.529 18.2765C178.529 18.2765 178.248 18.2363 178.208 18.1359L178.218 18.1259ZM190.834 23.4954C190.834 24.5693 190.814 26.2655 189.68 27.3394C188.536 28.4133 186.298 28.7144 184.772 28.4133C184.3 28.323 184.019 28.1724 183.809 28.062H183.788L183.397 27.8412L183.377 24.0575C183.357 21.6889 183.387 20.1432 183.437 19.9124C183.487 18.6679 185.324 18.5073 186.217 18.5575C190.041 18.5575 190.714 21.8093 190.824 23.4954H190.834ZM166.205 17.1223C166.205 17.1223 166.014 17.1925 165.733 17.3029L164.709 17.8349L163.976 19.6816C163.575 20.7053 162.832 22.5721 162.33 23.8367C161.618 25.6332 160.905 27.4398 160.183 29.2363C159.992 29.698 159.44 31.1232 158.938 32.3878C158.436 33.6524 157.944 34.8567 157.834 35.0675L157.774 35.1779C157.493 35.7099 157.011 36.6332 156.148 36.7737C156.148 36.7737 155.676 36.8239 155.496 36.9945C155.325 37.1651 155.335 37.3157 155.335 37.3157V37.5265C155.335 37.5265 155.355 37.6369 155.445 37.687C155.536 37.7372 155.676 37.7473 155.676 37.7473L158.818 37.7071H162.059C162.059 37.7071 162.29 37.7372 162.381 37.6569C162.471 37.5766 162.491 37.4763 162.491 37.4763V37.2454C162.491 37.2454 162.441 37.0046 162.32 36.9042C162.19 36.8038 161.708 36.7336 161.708 36.7336C160.403 36.563 160.183 35.5693 160.343 34.6761C160.423 34.2445 160.945 32.6186 161.538 30.9927L161.738 30.4307L165.141 30.4005C167.017 30.3805 168.633 30.4005 168.734 30.4206C168.884 30.4608 169.085 30.8823 169.687 32.3878C170.611 34.6761 170.681 34.9471 170.48 35.3686C170.46 35.3987 170.45 35.4288 170.44 35.4589C170.249 35.8704 169.878 36.6734 168.944 36.7536C168.944 36.7536 168.453 36.7737 168.332 36.9243C168.212 37.0748 168.242 37.2454 168.242 37.2454V37.4662C168.242 37.4662 168.272 37.6068 168.332 37.6569C168.392 37.7071 168.503 37.6971 168.503 37.6971L171.594 37.667H175.93C175.93 37.667 176.1 37.687 176.151 37.6168C176.201 37.5566 176.211 37.4763 176.211 37.4763V37.1752C176.211 37.1752 176.191 37.0146 176.111 36.9243C176.03 36.8339 175.458 36.7436 175.458 36.7436C174.746 36.6232 174.384 36.031 174.113 35.5794C174.043 35.469 173.983 35.3586 173.923 35.2783C173.792 35.1077 173.361 34.1843 173.009 33.281C172.668 32.3878 171.885 30.3604 171.283 28.7947C170.671 27.219 169.828 25.021 169.396 23.9069C168.704 22.1204 168.021 20.344 167.339 18.5575C166.957 17.5739 166.797 17.1624 166.757 17.1122C166.616 16.9316 166.194 17.1122 166.194 17.1122L166.205 17.1223ZM166.004 23.1341C165.823 22.6925 165.652 22.2409 165.472 21.7993C165.181 21.0766 165.07 20.906 164.99 21.0566C164.96 21.1067 164.789 21.5985 164.589 22.1606C163.324 25.8139 162.762 27.4599 162.642 27.771C162.571 27.9617 162.511 28.1624 162.511 28.2126C162.511 28.2728 163.535 28.3029 165.291 28.3029C166.827 28.3029 168.071 28.2828 168.071 28.2527C168.071 28.2327 167.931 27.8814 167.77 27.4799C167.61 27.0785 167.198 26.0748 166.867 25.2418C166.536 24.4188 166.154 23.4653 166.014 23.1341H166.004Z" fill="black"/>
</g>
</svg>
