<svg width="83" height="39" viewBox="0 0 83 39" fill="none" xmlns="http://www.w3.org/2000/svg">
<path d="M0 3.28L16.74 19.16V31.26H21.62V19.17L30.5 10.74L27.06 7.48L19.19 14.95L3.44 0H29.35C34.35 0.15 38.26 4.03 38.38 8.92V29.54C38.37 34.5 34.27 38.58 29.21 38.58L9.28 38.6C4.17 38.58 0 34.59 0 29.53V3.28Z" fill="black"/>
<mask id="mask0_69_433" style="mask-type:luminance" maskUnits="userSpaceOnUse" x="46" y="7" width="157" height="32">
<path d="M202.98 7.90002H46.98V38.57H202.98V7.90002Z" fill="white"/>
</mask>
<g mask="url(#mask0_69_433)">
<mask id="mask1_69_433" style="mask-type:luminance" maskUnits="userSpaceOnUse" x="47" y="14" width="18" height="24">
<path d="M64.31 14.57H47.15V37.24H64.31V14.57Z" fill="white"/>
</mask>
<g mask="url(#mask1_69_433)">
<path d="M50.62 36.64H48.04V34.41H50.64C51.27 34.41 51.77 34.3 52.16 34.08C52.56 33.86 52.89 33.51 53.16 33.04C53.44 32.57 53.71 31.98 53.97 31.27L54.14 30.83L47.91 15.58H50.72L55.18 26.68L55.53 28.06L55.95 26.71L60.37 15.61L63.18 15.59L56.99 30.86C56.54 31.97 56.12 32.89 55.72 33.63C55.31 34.38 54.88 34.97 54.41 35.42C53.95 35.86 53.42 36.18 52.81 36.36C52.2 36.55 51.47 36.65 50.62 36.65V36.64Z" fill="black"/>
</g>
<path d="M71.6801 31.72C70.6001 31.72 69.6001 31.51 68.6801 31.09C67.7601 30.66 66.9601 30.07 66.2601 29.32C65.5801 28.56 65.0401 27.67 64.6601 26.67C64.2701 25.66 64.0801 24.58 64.0801 23.42C64.0801 22.26 64.2701 21.19 64.6601 20.19C65.0501 19.19 65.5801 18.31 66.2601 17.56C66.9501 16.8 67.7601 16.2 68.6801 15.77C69.6001 15.34 70.5901 15.12 71.6601 15.12C72.6001 15.12 73.4801 15.28 74.2901 15.6C75.1101 15.91 75.8201 16.34 76.4401 16.91C77.0701 17.48 77.5501 18.15 77.9201 18.93V15.55H80.4401V31.26H77.9201V27.93C77.5601 28.7 77.0701 29.36 76.4401 29.93C75.8301 30.5 75.1101 30.94 74.2901 31.24C73.4801 31.54 72.6101 31.7 71.6901 31.7L71.6801 31.72ZM72.2601 29.24C73.0201 29.24 73.7401 29.09 74.4101 28.8C75.0901 28.51 75.6801 28.1 76.1801 27.57C76.6901 27.04 77.0901 26.42 77.3701 25.72C77.6601 25.01 77.8101 24.25 77.8101 23.43C77.8101 22.61 77.6601 21.87 77.3701 21.16C77.0901 20.45 76.6901 19.84 76.1801 19.31C75.6601 18.78 75.0801 18.37 74.4101 18.08C73.7401 17.78 73.0301 17.62 72.2801 17.62C71.5301 17.62 70.7801 17.77 70.1101 18.06C69.4401 18.34 68.8501 18.74 68.3401 19.27C67.8201 19.79 67.4201 20.4 67.1301 21.1C66.8501 21.81 66.7101 22.59 66.7101 23.43C66.7101 24.27 66.8601 25.11 67.1501 25.83C67.4401 26.54 67.8401 27.15 68.3401 27.66C68.8501 28.16 69.4401 28.55 70.1101 28.83C70.7901 29.11 71.5101 29.25 72.2601 29.25V29.24Z" fill="black"/>
</g>
</svg>
