<svg width="124" height="53" viewBox="0 0 124 53" fill="none" xmlns="http://www.w3.org/2000/svg">
<path d="M3.40096 41.3784L1.44006 38.9198V50.9603C1.44006 51.7556 2.08477 52.4003 2.88006 52.4003H120.96C121.755 52.4003 122.4 51.7556 122.4 50.9603V7.43066L118.484 12.1051C117.831 12.8841 116.598 12.76 116.114 11.8666L112.482 5.16843C112.154 4.56347 111.353 4.41286 110.828 4.85741C110.305 5.29991 109.508 5.153 109.177 4.55318L107.871 2.18495C107.417 1.3616 106.309 1.18714 105.624 1.83124L104.873 2.53741C104.656 2.74108 104.382 2.87272 104.088 2.91424L97.3811 3.86021C96.8013 3.942 96.3287 4.36684 96.1858 4.93478L93.1488 17.0069C92.7985 18.3992 90.8496 18.4776 90.3886 17.118L87.8236 9.55332C87.6255 8.96891 87.077 8.57572 86.4599 8.57572H84.2581C83.5493 8.57572 82.9459 9.09149 82.8356 9.79162L81.5951 17.6654C81.4848 18.3655 80.8814 18.8813 80.1727 18.8813H78.9763C78.7057 18.8813 78.4406 18.805 78.2114 18.6613L76.431 17.5452C75.6501 17.0557 74.6168 17.4155 74.3089 18.2842L71.1622 27.1609C70.8603 28.0128 69.7237 28.1707 69.201 27.4334C68.6884 26.7104 67.578 26.8451 67.2532 27.6697L67.1313 27.9792C66.7075 29.0552 65.1933 29.0788 64.7361 28.0167L60.6538 18.5327C60.121 17.295 58.3319 17.4017 57.9501 18.6941L57.4522 20.3798C57.2288 21.1359 56.439 21.5718 55.6802 21.3577L54.3299 20.9768C53.5827 20.766 52.803 21.1855 52.567 21.925L49.6218 31.1566C49.4487 31.6994 48.9717 32.0891 48.4053 32.1505L44.8852 32.5325C44.3746 32.5879 43.9321 32.9111 43.724 33.3807L41.6583 38.0426C41.1075 39.2856 39.2994 39.1432 38.9501 37.8292L38.3934 35.7352C38.0735 34.5321 36.4811 34.2743 35.7979 35.3149L29.0643 45.5725C28.4013 46.5825 26.8643 46.3763 26.491 45.2273L24.2134 38.2182C23.7937 36.9264 21.983 36.8807 21.4986 38.1496L20.3049 41.2764C20.1804 41.6026 19.9416 41.8725 19.6329 42.0357L18.4644 42.6538C17.6459 43.0868 16.6374 42.6458 16.3995 41.7509L14.7135 35.4096C14.5458 34.7787 13.9747 34.3396 13.3219 34.3396H12.9058C12.3488 34.3396 11.8418 34.0184 11.6038 33.5149L11.1355 32.5241C10.5749 31.338 8.84963 31.4582 8.45895 32.7106L5.90141 40.9093C5.55752 42.0117 4.12102 42.2812 3.40096 41.3784Z" fill="url(#paint0_linear_69_1561)"/>
<path d="M1.44006 38.9198L3.40096 41.3784C4.12102 42.2811 5.55752 42.0117 5.90141 40.9093L8.45895 32.7106C8.84963 31.4582 10.5749 31.338 11.1355 32.5241L11.6038 33.5149C11.8418 34.0184 12.3488 34.3396 12.9058 34.3396H13.3219C13.9747 34.3396 14.5458 34.7787 14.7135 35.4096L16.3995 41.7509C16.6374 42.6458 17.6459 43.0868 18.4644 42.6538L19.6329 42.0357C19.9416 41.8725 20.1804 41.6026 20.3049 41.2764L21.4986 38.1496C21.983 36.8807 23.7937 36.9264 24.2134 38.2182L26.491 45.2273C26.8643 46.3763 28.4013 46.5825 29.0643 45.5725L35.7979 35.3149C36.481 34.2743 38.0735 34.5321 38.3934 35.7352L38.9501 37.8292C39.2994 39.1432 41.1075 39.2856 41.6583 38.0426L43.724 33.3807C43.9321 32.9111 44.3746 32.5879 44.8852 32.5325L48.4053 32.1505C48.9717 32.0891 49.4486 31.6994 49.6218 31.1566L52.567 21.925C52.803 21.1854 53.5827 20.766 54.3299 20.9768L55.6802 21.3577C56.439 21.5718 57.2288 21.1359 57.4522 20.3798L57.9501 18.6941C58.3319 17.4017 60.121 17.295 60.6538 18.5327L64.7361 28.0167C65.1933 29.0788 66.7075 29.0552 67.1313 27.9792L67.2532 27.6697C67.578 26.8451 68.6884 26.7104 69.2009 27.4334C69.7237 28.1706 70.8603 28.0128 71.1622 27.1609L74.3089 18.2842C74.6168 17.4155 75.6501 17.0557 76.431 17.5452L78.2114 18.6613C78.4406 18.805 78.7057 18.8813 78.9762 18.8813H80.1727C80.8814 18.8813 81.4848 18.3655 81.5951 17.6654L82.8356 9.79162C82.9459 9.09149 83.5493 8.57572 84.2581 8.57572H86.4599C87.077 8.57572 87.6255 8.96891 87.8236 9.55332L90.3886 17.118C90.8496 18.4776 92.7985 18.3992 93.1488 17.0069L96.1858 4.93478C96.3287 4.36684 96.8012 3.942 97.3811 3.86021L104.088 2.91424C104.382 2.87272 104.656 2.74108 104.873 2.53741L105.624 1.83124C106.309 1.18714 107.417 1.3616 107.871 2.18495L109.177 4.55317C109.508 5.153 110.305 5.2999 110.828 4.85741C111.353 4.41286 112.154 4.56347 112.482 5.16842L116.133 11.9013C116.612 12.7853 117.827 12.9184 118.486 12.1591L121.68 8.4803" stroke="#130D50" stroke-width="2.88" stroke-linecap="round"/>
<defs>
<linearGradient id="paint0_linear_69_1561" x1="61.9201" y1="0.560303" x2="61.9201" y2="52.4003" gradientUnits="userSpaceOnUse">
<stop stop-color="#6033FF" stop-opacity="0.2"/>
<stop offset="1" stop-color="#6033FF" stop-opacity="0"/>
</linearGradient>
</defs>
</svg>
