<svg width="123" height="55" viewBox="0 0 123 55" fill="none" xmlns="http://www.w3.org/2000/svg">
<path d="M5.73468 46.7937H1.64172V53.4399C1.64172 54.2351 2.28644 54.8799 3.08173 54.8799H121.162C121.957 54.8799 122.602 54.2351 122.602 53.4399V3.75194L118.819 8.53439C118.09 9.45631 116.623 9.16348 116.304 8.03226L114.785 2.64871C114.609 2.0283 114.043 1.59985 113.399 1.59985H108.082C107.698 1.59985 107.33 1.75355 107.059 2.02671L103.394 5.72826C102.97 6.15711 102.323 6.27571 101.774 6.02537L98.2829 4.43389C97.4907 4.07274 96.5617 4.49169 96.308 5.32451L93.1578 15.6654C92.8202 16.7734 91.3791 17.0497 90.6557 16.1451L88.059 12.8979C87.6551 12.3929 86.8648 12.472 86.5691 13.0472C86.3187 13.5342 85.6926 13.6827 85.2502 13.36L84.4428 12.771C83.7491 12.265 82.7696 12.4746 82.3438 13.2201L79.992 17.3375C79.6736 17.8947 79.0249 18.1741 78.4013 18.0225L76.3637 17.527C75.6166 17.3454 74.8586 17.7827 74.6419 18.5204L70.7998 31.5997C70.6759 32.0213 70.3663 32.3633 69.959 32.5284L65.1452 34.4792C64.4716 34.7522 63.7 34.4803 63.3463 33.8452L60.4803 28.699C59.9208 27.6943 58.4674 27.7185 57.9416 28.7413L57.2165 30.1517C57.0508 30.474 56.7697 30.722 56.4292 30.8462L53.1793 32.0315C52.7708 32.1805 52.4515 32.5061 52.3105 32.9175L50.1991 39.0784C50.0445 39.5294 49.6767 39.8747 49.2168 40.0005L44.5255 41.2838C44.2182 41.3679 43.9474 41.5515 43.7556 41.8059L41.0578 45.384C40.5089 46.1119 39.4304 46.1531 38.8276 45.4692L37.5045 43.9678C37.0294 43.4287 36.2297 43.3224 35.6303 43.7185L28.2741 48.5795C27.7807 48.9056 27.138 48.8968 26.6537 48.5573L24.9806 47.3847C24.4762 47.0312 23.803 47.0376 23.3055 47.4005L21.5663 48.6692C21.3199 48.8489 21.0227 48.9458 20.7177 48.9458H15.8843C15.5017 48.9458 15.1348 48.7935 14.8646 48.5225L10.5355 44.1804C9.9248 43.5679 8.91562 43.6282 8.38218 44.3091L6.86828 46.2417C6.59533 46.5901 6.1773 46.7937 5.73468 46.7937Z" fill="url(#paint0_linear_69_1571)"/>
<path d="M1.44 46.6338H4.81299C5.25561 46.6338 5.67364 46.4302 5.94659 46.0818L7.4605 44.1492C7.99393 43.4682 9.00311 43.4079 9.61385 44.0205L13.9429 48.3626C14.2131 48.6336 14.58 48.7859 14.9626 48.7859H19.796C20.101 48.7859 20.3982 48.689 20.6446 48.5092L22.1548 47.4076C22.7559 46.9692 23.5919 47.0608 24.0838 47.6189L25.6175 49.3592C26.1295 49.9402 27.0093 50.0122 27.6089 49.5223L34.6799 43.7453C35.2796 43.2554 36.1594 43.3274 36.6714 43.9084L37.9059 45.3093C38.5087 45.9932 39.5873 45.952 40.1361 45.2241L42.834 41.6459C43.0258 41.3916 43.2965 41.208 43.6038 41.1239L48.2951 39.8406C48.755 39.7148 49.1228 39.3695 49.2774 38.9185L51.3889 32.7576C51.5298 32.3462 51.8491 32.0206 52.2577 31.8716L55.5076 30.6863C55.848 30.5621 56.1291 30.3141 56.2948 29.9918L57.0199 28.5814C57.5457 27.5586 58.9991 27.5344 59.5586 28.5391L62.4247 33.6853C62.7783 34.3204 63.5499 34.5923 64.2236 34.3193L69.0373 32.3685C69.4446 32.2034 69.7542 31.8614 69.8781 31.4398L73.7202 18.3605C73.9369 17.6228 74.695 17.1855 75.4421 17.3671L77.4796 17.8626C78.1033 18.0142 78.752 17.7348 79.0703 17.1776L81.4221 13.0602C81.8479 12.3147 82.8275 12.1051 83.5211 12.6111L84.3285 13.2001C84.771 13.5228 85.397 13.3743 85.6474 12.8873C85.9431 12.3121 86.7334 12.2329 87.1373 12.738L89.734 15.9852C90.4574 16.8898 91.8986 16.6135 92.2361 15.5055L95.3863 5.1646C95.6401 4.33178 96.569 3.91282 97.3612 4.27398L100.852 5.86546C101.401 6.1158 102.048 5.9972 102.473 5.56835L106.137 1.8668C106.408 1.59363 106.776 1.43994 107.161 1.43994H112.477C113.122 1.43994 113.688 1.86839 113.863 2.4888L115.369 7.82365C115.69 8.96399 117.175 9.2493 117.897 8.3095L120.96 4.31994" stroke="#130D50" stroke-width="2.88" stroke-linecap="round"/>
<defs>
<linearGradient id="paint0_linear_69_1571" x1="62.1217" y1="1.59985" x2="62.1217" y2="54.8799" gradientUnits="userSpaceOnUse">
<stop stop-color="#6033FF" stop-opacity="0.2"/>
<stop offset="1" stop-color="#6033FF" stop-opacity="0"/>
</linearGradient>
</defs>
</svg>
