<svg width="103" height="42" viewBox="0 0 103 42" fill="none" xmlns="http://www.w3.org/2000/svg">
<path d="M3.27051 37.7395L1.19995 35.8286V40.8C1.19995 41.4627 1.73721 42 2.39995 42H100.8C101.463 42 102 41.4627 102 40.8V21.6857L100.409 26.973C100.336 27.2135 100.19 27.4252 99.9911 27.5783L98.6653 28.598C97.9849 29.1212 96.9912 28.7818 96.7731 27.9516L94.7432 20.2237C94.6047 19.6963 94.1279 19.3286 93.5826 19.3286H92.7291C92.1746 19.3286 91.6923 18.9486 91.5624 18.4095L90.7085 14.8631C90.4784 13.9075 89.2056 13.7115 88.6987 14.5536C88.4999 14.8838 88.1426 15.0857 87.7572 15.0857H83.4877C83.1339 15.0857 82.7981 14.9296 82.5701 14.659L81.8382 13.7906C81.2536 13.097 80.1404 13.2778 79.8054 14.1209L78.1777 18.218C77.7471 19.3017 76.1799 19.1965 75.8981 18.0649L73.4896 8.396C73.4279 8.14801 73.2885 7.92623 73.0919 7.76294L70.4464 5.56554C70.1583 5.3262 69.7749 5.23515 69.4099 5.31936L66.8232 5.91619C66.2831 6.04079 65.728 5.77934 65.4801 5.28364L63.9007 2.12534C63.4603 1.24485 62.2055 1.23995 61.7584 2.11697L59.648 6.25582C59.2867 6.96427 58.2663 6.94005 57.9391 6.21526C57.5991 5.46212 56.5254 5.47408 56.2023 6.23461L54.8832 9.33895C54.451 10.3561 52.9899 10.2977 52.6404 9.2492L50.7995 3.72759C50.4249 2.60407 48.8219 2.64481 48.5049 3.7859L46.3955 11.3784C46.2512 11.8977 45.7783 12.2571 45.2393 12.2571H44.666C44.1334 12.2571 43.6645 12.6082 43.5145 13.1192L39.3985 27.1451C39.3601 27.276 39.2997 27.3993 39.2198 27.5099L34.8013 33.6268C34.3412 34.2637 33.4033 34.294 32.9031 33.6881L31.7383 32.2771C31.3998 31.8671 30.8318 31.7287 30.3427 31.9371L27.3708 33.2029C26.9802 33.3693 26.7066 33.7297 26.6513 34.1507L26.1965 37.6134C26.1181 38.2106 25.6091 38.6571 25.0067 38.6571H23.006C22.5774 38.6571 22.1814 38.4286 21.967 38.0576L19.2157 33.2967C18.7653 32.5172 17.6487 32.493 17.1648 33.2522L14.0014 38.2154C13.5647 38.9005 12.5878 38.9628 12.0676 38.3388L9.0003 34.6586C8.49874 34.0569 7.56447 34.0893 7.10575 34.7243L5.05711 37.5603C4.63575 38.1436 3.7993 38.2275 3.27051 37.7395Z" fill="url(#paint0_linear_69_1551)"/>
<path d="M1.19995 35.8286L3.27051 37.7395C3.7993 38.2275 4.63575 38.1436 5.05711 37.5603L7.10575 34.7243C7.56446 34.0893 8.49874 34.0569 9.0003 34.6586L12.0676 38.3388C12.5878 38.9628 13.5647 38.9005 14.0014 38.2154L17.1648 33.2522C17.6487 32.493 18.7653 32.5172 19.2157 33.2967L21.967 38.0576C22.1814 38.4286 22.5774 38.6571 23.006 38.6571H25.0067C25.609 38.6571 26.1181 38.2106 26.1965 37.6134L26.6513 34.1507C26.7066 33.7297 26.9802 33.3693 27.3708 33.2029L30.3427 31.9371C30.8318 31.7287 31.3998 31.8671 31.7383 32.2771L32.9031 33.688C33.4033 34.294 34.3412 34.2637 34.8013 33.6268L39.2198 27.5099C39.2997 27.3993 39.3601 27.276 39.3985 27.1451L43.5145 13.1192C43.6645 12.6082 44.1334 12.2571 44.666 12.2571H45.2392C45.7783 12.2571 46.2512 11.8977 46.3955 11.3784L48.5049 3.7859C48.8219 2.64481 50.4249 2.60407 50.7995 3.72759L52.6404 9.2492C52.9899 10.2977 54.451 10.3561 54.8832 9.33895L56.2023 6.23461C56.5254 5.47408 57.5991 5.46212 57.9391 6.21526C58.2663 6.94005 59.2867 6.96426 59.6479 6.25582L61.7583 2.11697C62.2055 1.23995 63.4603 1.24485 63.9007 2.12534L65.4801 5.28364C65.728 5.77934 66.2831 6.04079 66.8232 5.91619L69.4099 5.31936C69.7749 5.23515 70.1583 5.3262 70.4464 5.56554L73.0919 7.76294C73.2885 7.92623 73.4279 8.14801 73.4896 8.39599L75.8981 18.0649C76.1799 19.1965 77.7471 19.3017 78.1777 18.218L79.8054 14.1209C80.1404 13.2778 81.2536 13.097 81.8382 13.7906L82.5701 14.659C82.7981 14.9296 83.1339 15.0857 83.4877 15.0857H87.7572C88.1426 15.0857 88.4999 14.8838 88.6987 14.5536C89.2056 13.7115 90.4784 13.9075 90.7085 14.863L91.5624 18.4095C91.6922 18.9486 92.1746 19.3286 92.7291 19.3286H93.5826C94.1279 19.3286 94.6046 19.6963 94.7432 20.2237L96.7731 27.9516C96.9912 28.7818 97.9849 29.1212 98.6653 28.598L99.9362 27.6205C100.169 27.4416 100.328 27.1837 100.383 26.8956L101.4 21.6" stroke="#130D50" stroke-width="2.4" stroke-linecap="round"/>
<defs>
<linearGradient id="paint0_linear_69_1551" x1="51.6" y1="0.6" x2="51.6" y2="42" gradientUnits="userSpaceOnUse">
<stop stop-color="#6033FF" stop-opacity="0.2"/>
<stop offset="1" stop-color="#6033FF" stop-opacity="0"/>
</linearGradient>
</defs>
</svg>
